<?xml version="1.0" encoding="utf-8"?>
<!-- Generator: Adobe Illustrator 23.0.0, SVG Export Plug-In . SVG Version: 6.00 Build 0)  -->
<svg version="1.1" id="Layer_1" xmlns="http://www.w3.org/2000/svg" xmlns:xlink="http://www.w3.org/1999/xlink" x="0px" y="0px"
	 viewBox="0 0 820.12 400" style="enable-background:new 0 0 820.12 400;" xml:space="preserve">
<style type="text/css">
	.st0{fill:#EEECF1;}
	.st1{fill:#DAD4DD;}
	.st2{fill:#DDD7E0;}
	.st3{fill:#C8C0CC;}
	.st4{fill:#FFFFFF;}
	.st5{opacity:0.75;}
	.st6{fill:#F48462;}
	.st7{fill:#F7B369;}
	.st8{fill:#68B6D8;}
	.st9{fill:#A37B90;}
	.st10{fill:#5C69A5;}
	.st11{fill:#40507F;}
	.st12{fill:#E6F4FF;}
	.st13{fill:#8192D3;}
	.st14{fill:#92B4EA;}
	.st15{fill:#A098A5;}
	.st16{fill:#BCB6C1;}
</style>
<path class="st0" d="M0,79.68C8.25,70.44,69.85,3.84,169.04,7.45c103.01,3.75,154.88,80.08,161.66,89.43
	c12.23,17.25,34.89,51.17,74.29,77.04c48.15,31.61,83.97,38.67,127.95,38.5c89.24-0.33,122.71-52.66,175.41-42.63
	c31.07,5.91,71.92,29.07,111.77,107.31c0,40.82,0,81.65,0,122.47c-273.67,0-547.34,0-821.01,0C-0.59,292.94-0.3,186.31,0,79.68z"/>
<g>
	<g>
		<rect x="0.14" y="305.81" class="st0" width="819.98" height="94.19"/>
	</g>
	<g>
		<rect x="0.14" y="305.81" class="st1" width="357.57" height="9.93"/>
	</g>
</g>
<g>
	<g>
		<path class="st2" d="M256.49,226.8H0.14V97.36h256.35c6.97,0,12.61,5.65,12.61,12.61v104.22
			C269.1,221.15,263.46,226.8,256.49,226.8z"/>
	</g>
	<g>
		<path class="st0" d="M267.02,231.07H0.14v-9.34h266.87c2.53,0,4.57,2.05,4.57,4.57v0.2C271.59,229.02,269.54,231.07,267.02,231.07
			z"/>
	</g>
	<g>
		<path class="st3" d="M64.32,221.36H37.93v-6.95c0-3.02,2.45-5.48,5.48-5.48h15.44c3.02,0,5.48,2.45,5.48,5.48V221.36z"/>
	</g>
	<g>
		<path class="st4" d="M33.64,221.48H8.07c-0.58,0-1.06-0.47-1.06-1.06c0-0.58,0.47-1.06,1.06-1.06h25.57
			c0.58,0,1.06,0.47,1.06,1.06C34.7,221,34.22,221.48,33.64,221.48z"/>
	</g>
	<g>
		<g>
			<path class="st4" d="M152.24,115.51H23.36c-0.6,0-1.1-0.49-1.1-1.1c0-0.6,0.49-1.1,1.1-1.1h128.89c0.6,0,1.1,0.49,1.1,1.1
				C153.34,115.02,152.85,115.51,152.24,115.51z"/>
		</g>
		<g>
			<path class="st4" d="M143.91,123.26H23.05c-0.59,0-1.06-0.47-1.06-1.06v-0.07c0-0.59,0.47-1.06,1.06-1.06h120.86
				c0.59,0,1.06,0.47,1.06,1.06v0.07C144.97,122.79,144.5,123.26,143.91,123.26z"/>
		</g>
		<g>
			<path class="st4" d="M126.1,131.02H22.97c-0.54,0-0.98-0.44-0.98-0.98v-0.23c0-0.54,0.44-0.98,0.98-0.98H126.1
				c0.54,0,0.98,0.44,0.98,0.98v0.23C127.08,130.58,126.64,131.02,126.1,131.02z"/>
		</g>
	</g>
	<g>
		<g>
			<path class="st4" d="M152.39,153.62H23.5c-0.6,0-1.1-0.49-1.1-1.1s0.49-1.1,1.1-1.1h128.89c0.6,0,1.1,0.49,1.1,1.1
				S152.99,153.62,152.39,153.62z"/>
		</g>
		<g>
			<path class="st4" d="M144.06,161.37H23.2c-0.59,0-1.06-0.47-1.06-1.06v-0.07c0-0.59,0.47-1.06,1.06-1.06h120.86
				c0.59,0,1.06,0.47,1.06,1.06v0.07C145.12,160.9,144.64,161.37,144.06,161.37z"/>
		</g>
		<g>
			<path class="st4" d="M126.25,169.13H23.12c-0.54,0-0.98-0.44-0.98-0.98v-0.23c0-0.54,0.44-0.98,0.98-0.98h103.13
				c0.54,0,0.98,0.44,0.98,0.98v0.23C127.23,168.69,126.79,169.13,126.25,169.13z"/>
		</g>
	</g>
</g>
<g class="st5">
	<ellipse class="st0" cx="435.49" cy="344.1" rx="381.09" ry="8.8"/>
</g>
<g>
	<g>
		<path class="st6" d="M140.53,155.58l2.16-2.32c0,0,6.05-5.22,9.86-7.05c1.6-0.77,3.94-0.35,2.13,1.94
			c-0.98,1.24-1.41,2.67-1.41,2.67s3.08-1.18,5.14-2.74c1.32-1,3.11-4.79,4.34-4.07c1.96,1.15,0.02,4.87,0.02,4.87
			s0.7-4.6,2.66-2.94c1.96,1.65-2.55,10.88-4.82,13.15c-2.27,2.28-14.81,5.53-14.81,5.53L140.53,155.58z"/>
	</g>
	<g>
		<path d="M155.79,152.6c-0.13,0-0.25-0.1-0.28-0.24c-0.02-0.15,0.08-0.3,0.23-0.32c2.74-0.44,5.23-3.05,5.25-3.08
			c0.11-0.11,0.28-0.12,0.4-0.01c0.11,0.11,0.12,0.28,0.01,0.4c-0.11,0.11-2.64,2.78-5.57,3.25
			C155.82,152.6,155.8,152.6,155.79,152.6z"/>
	</g>
	<g>
		<path d="M159.2,154.46c-0.04,0-0.09-0.01-0.13-0.03l-5.77-3.04c-0.14-0.07-0.19-0.24-0.12-0.38c0.07-0.14,0.24-0.19,0.38-0.12
			l5.6,2.95l2.39-2.03c0.12-0.1,0.29-0.09,0.39,0.03c0.1,0.12,0.09,0.29-0.03,0.39l-2.53,2.15
			C159.33,154.44,159.27,154.46,159.2,154.46z"/>
	</g>
	<g>
		<path d="M148.5,155.01c-0.11,0-0.22-0.07-0.26-0.18c-0.06-0.14,0.02-0.31,0.16-0.36c2.97-1.14,4.8-3.47,4.81-3.5
			c0.09-0.12,0.27-0.15,0.39-0.05c0.12,0.09,0.14,0.27,0.05,0.39c-0.08,0.1-1.94,2.48-5.06,3.67
			C148.57,155.01,148.53,155.01,148.5,155.01z"/>
	</g>
	<g>
		<polygon class="st6" points="118.27,317.23 118.27,327.67 135.43,326.93 135.43,317.23 		"/>
	</g>
	<g>
		<polygon class="st6" points="75.83,316.13 75.83,325.9 92.84,325.21 92.84,316.13 		"/>
	</g>
	<g>
		<path class="st7" d="M112.79,208.54c0,0,13.26,21.24,21.12,55.26c7.17,31.03,8.1,55.56,8.1,55.56l-30.39,1.13
			c0,0-3.45-25.3-4.37-35.31c-0.92-10.01-3.98-23.41-3.98-23.41s-3.49,57.74-4.51,58.72c-1.01,0.98-30.18-0.21-30.51-1.53
			c-0.64-2.58,6.1-94.3,7.59-100.48C81.41,195.28,112.79,208.54,112.79,208.54z"/>
	</g>
	<g>
		<g>
			<g>
				<g>
					<path class="st8" d="M97.07,342.04c0,1.72-0.58,3.69-1.76,4.19c-1.19,0.5-10.78,1.53-19.17,0.8c-8.04-0.7-7.93-0.41-8.52-1.14
						c-0.29-0.37-1.5-2.98-0.85-4.65c0.04-0.08,0.07-0.18,0.11-0.26c0.33-0.84,0.68-1.65,0.92-2.23c0.25-0.55,0.55-1.08,0.91-1.59
						c0.87-1.2,2.59-3.68,3.03-4.96c0.58-1.71,1.46-5.4,2.05-7.14c0.45-1.29,5.72-3.33,8.26-4.24c0.88-0.32,1.82-0.39,2.74-0.22
						c2.57,0.47,7.86,1.52,8.75,2.26c1.17,0.98,1.76,9.11,1.76,10.34v1.23c0,1.14,0.79,3.4,1.3,5.28c0.14,0.47,0.25,0.91,0.33,1.31
						C97.01,341.4,97.07,341.75,97.07,342.04z"/>
				</g>
			</g>
		</g>
	</g>
	<g>
		<path class="st9" d="M103.27,261.43c-0.18-0.01-0.3-0.15-0.29-0.31c0.01-0.12,0.98-12.42,1.26-17.86
			c0.28-5.44,0.29-8.05,0.29-8.07c0-0.11,0.07-0.22,0.17-0.26l10.05-4.47c0.15-0.07,0.32,0,0.38,0.15c0.07,0.15,0,0.32-0.15,0.38
			l-9.88,4.4c-0.01,0.69-0.05,3.28-0.29,7.91c-0.28,5.46-1.25,17.75-1.26,17.88C103.54,261.31,103.42,261.43,103.27,261.43z"/>
	</g>
	<g>
		<path class="st9" d="M77.99,228.23c-0.09,0-0.18-0.04-0.24-0.13c-0.09-0.13-0.06-0.31,0.07-0.4c5.18-3.61,6.53-8.87,6.54-8.92
			c0.04-0.16,0.19-0.25,0.35-0.21c0.16,0.04,0.25,0.2,0.21,0.35c-0.06,0.22-1.41,5.52-6.78,9.25
			C78.1,228.21,78.04,228.23,77.99,228.23z"/>
	</g>
	<g>
		<g>
			<path class="st8" d="M162.52,345.52c0.41-0.05,0.7-0.45,0.63-0.88c-0.3-2.03-1.42-7.72-4.58-10.19
				c-3.89-3.03-12.12-4.37-15.09-6.39c-2.97-2.03-6.24-6.85-8.05-5.98s-5.27,4.94-10.13,4.26c-4.87-0.68-7.1-1.91-8.44-0.75
				s-2.4,17.69-1.85,18.69c0.54,1,7.44,0.21,8.03,0.39c0.6,0.17,2.36-3.74,3.47-3.13c1.12,0.61,2.45,2.49,4.1,3.37
				C132.14,345.73,157.58,346.09,162.52,345.52z"/>
		</g>
	</g>
	<g>
		<path class="st10" d="M95.84,160.11c-18.85-0.26-20.15,8.71-20.15,8.71v16.23l-2.16,5.45l0.76,23.28l43.8-1l-1.87-22.63
			C116.23,190.16,116.74,160.41,95.84,160.11z"/>
	</g>
	<g>
		<path class="st7" d="M99.5,164.94c0,0,0.93,2.22,0.85,3.23c-0.05,0.68-1.35,2.25-1.35,2.25s2.35,5.42,2.77,8.36
			c0.42,2.95,0.15,13.85-0.79,13.96c-0.4,0.05-4.64-12.32-4.77-13.49c-0.2-1.78,0.99-8.93,0.99-8.93s-1.37-1.13-1.68-1.59
			c-0.3-0.47-0.06-3.8-0.06-3.8S97.63,163.45,99.5,164.94z"/>
	</g>
	<g>
		<path class="st11" d="M139.66,153.13l14.08,11.45c0,0-4.9,12.01-13.8,18.72c-9.32,7.02-22.72,5.63-22.72,5.63l1.34,30.37
			l-3.7-6.43c0,0-6.19-24.77-9.59-35.66c-3.72-11.91-4.72-17.63-4.72-17.63s5.33-0.32,12.97,1.8
			C117.7,162.53,128.63,165.44,139.66,153.13z"/>
	</g>
	<g>
		<path class="st11" d="M90.38,160c0,0,6.38,59.48,5.9,60.01c-0.49,0.53-11.23,1.19-15.82,0.64s-7.24-1.83-7.51-1.97
			c-0.27-0.14-0.27-27.19-0.27-27.19l8.24-28.79C86.56,159.99,90.38,160,90.38,160z"/>
	</g>
	<g>
		<path class="st12" d="M125.47,168.91c-0.32,0-0.61-0.13-0.84-0.37c-1.19-1.29-0.39-5.82-0.29-6.33c0.02-0.13,0.12-0.22,0.25-0.24
			c0.13-0.02,0.25,0.05,0.31,0.16c0.25,0.48,2.37,4.71,1.57,6.21c-0.17,0.32-0.47,0.52-0.85,0.56
			C125.56,168.91,125.51,168.91,125.47,168.91z M124.78,163.25c-0.22,1.62-0.4,4.15,0.29,4.89c0.13,0.14,0.28,0.2,0.48,0.17
			c0.19-0.02,0.31-0.1,0.39-0.25C126.36,167.28,125.56,164.97,124.78,163.25z"/>
	</g>
	<g>
		<g>
			<g>
				<g>
					<path class="st6" d="M90.35,156.43l0.05,5.92c0,0,2.84,1.84,5.69,1.85c3.86,0,5.05-2.36,5.05-2.36l-0.6-7.54L90.35,156.43z"/>
				</g>
			</g>
		</g>
	</g>
	<g>
		<path class="st12" d="M101.01,160.32c0,0-0.6,3.38-4.44,3.16c-3.84-0.22-6.23-2.75-6.23-2.75s0.08,7.89,0.97,8.09
			c1.06,0.24,6.44-3.92,6.44-3.92l5.07,2.13c0.27,0.12,0.55-0.15,0.45-0.43L101.01,160.32z"/>
	</g>
	<g>
		<g>
			<g>
				<g>
					<path d="M90.35,156.28c0,0,2.76,5.68,7.13,4.96c3.52-0.59,3.06-6.45,3.06-6.45L90.35,156.28z"/>
				</g>
			</g>
		</g>
	</g>
	<g>
		<g>
			<g>
				<g>
					<path class="st6" d="M102.29,140.84c0,0,2.12,10.06-1.08,14.95c-3.2,4.89-7.49,3.54-9.43,2.1c-2.61-1.94-3.19-4.68-3.19-4.68
						s-3.53,0.77-4.77-2.11c-1.29-3.02,0.87-5.5,2.65-5.68c1.77-0.17,1.98,0.14,1.98,0.14l-0.58-3.24
						C87.88,142.34,98.46,130.17,102.29,140.84z"/>
				</g>
			</g>
		</g>
	</g>
	<g>
		<g>
			<g>
				<g>
					<path class="st6" d="M100.66,145.6c0,0,5.34-2.38,5.82,1.77c0.57,4.81-5.2,4.95-5.2,4.95L100.66,145.6z"/>
				</g>
			</g>
		</g>
	</g>
	<g>
		<path d="M103.41,149.86c-0.05,0-0.09-0.01-0.14-0.04c-0.14-0.08-0.19-0.25-0.11-0.39l1.74-3.1c0.08-0.14,0.25-0.19,0.39-0.11
			c0.14,0.08,0.19,0.25,0.11,0.39l-1.74,3.1C103.6,149.81,103.51,149.86,103.41,149.86z"/>
	</g>
	<g>
		<path d="M87.95,150.23c-0.06,0-0.13-0.02-0.18-0.07l-2.78-2.3c-0.12-0.1-0.14-0.28-0.04-0.4c0.1-0.12,0.28-0.14,0.4-0.04l2.78,2.3
			c0.12,0.1,0.14,0.28,0.04,0.4C88.11,150.19,88.03,150.23,87.95,150.23z"/>
	</g>
	<g>
		<path d="M85.43,150.7c-0.08,0-0.17-0.04-0.22-0.11c-0.1-0.12-0.07-0.3,0.05-0.4l1.59-1.24c0.12-0.1,0.3-0.07,0.4,0.05
			c0.1,0.12,0.07,0.3-0.05,0.4l-1.59,1.24C85.55,150.68,85.49,150.7,85.43,150.7z"/>
	</g>
	<g>
		<path d="M105.48,148.91h-1.53c-0.16,0-0.28-0.13-0.28-0.28c0-0.16,0.13-0.28,0.28-0.28h1.53c0.16,0,0.28,0.13,0.28,0.28
			C105.76,148.78,105.63,148.91,105.48,148.91z"/>
	</g>
	<g>
		<path d="M93.72,147.61c-0.14,0-0.27-0.11-0.28-0.25l-0.18-1.73c-0.02-0.16,0.1-0.3,0.25-0.31c0.15-0.02,0.3,0.1,0.31,0.25
			l0.18,1.73c0.02,0.16-0.1,0.3-0.25,0.31C93.74,147.61,93.73,147.61,93.72,147.61z"/>
	</g>
	<g>
		<path d="M100.17,147.21c-0.14,0-0.27-0.11-0.28-0.25l-0.18-1.73c-0.02-0.16,0.1-0.3,0.25-0.31c0.15-0.02,0.3,0.1,0.31,0.25
			l0.18,1.73c0.02,0.16-0.1,0.3-0.25,0.31C100.19,147.2,100.18,147.21,100.17,147.21z"/>
	</g>
	<g>
		<path d="M97.53,151.62c-0.06,0-0.12-0.02-0.17-0.06c-0.12-0.1-0.15-0.27-0.05-0.4c1.5-1.95-0.56-4.48-0.58-4.5
			c-0.1-0.12-0.08-0.3,0.04-0.4c0.12-0.1,0.3-0.08,0.4,0.04c0.02,0.03,2.37,2.9,0.59,5.21C97.7,151.58,97.61,151.62,97.53,151.62z"
			/>
	</g>
	<g>
		<path d="M100.67,143.78c-0.04,0-0.09-0.01-0.13-0.03c-0.68-0.35-1.71-0.1-1.72-0.1c-0.15,0.04-0.31-0.05-0.34-0.21
			c-0.04-0.15,0.05-0.31,0.2-0.34c0.05-0.01,1.25-0.31,2.12,0.14c0.14,0.07,0.19,0.24,0.12,0.38
			C100.88,143.72,100.78,143.78,100.67,143.78z"/>
	</g>
	<g>
		<path d="M92.31,144.6c-0.07,0-0.14-0.03-0.2-0.08c-0.11-0.11-0.11-0.29,0-0.4c0.69-0.7,1.92-0.79,1.97-0.8
			c0.16-0.01,0.29,0.11,0.3,0.26c0.01,0.16-0.11,0.29-0.26,0.3c-0.01,0-1.07,0.08-1.6,0.63C92.46,144.57,92.39,144.6,92.31,144.6z"
			/>
	</g>
	<g>
		<path d="M100.35,134.82c0,0,2.47,2.26,3.05,5.02c0.58,2.76,0,5.09,0,5.09l-0.56-0.01c0,0-1.33-6.68-3.49-7.29
			C97.2,137.01,100.35,134.82,100.35,134.82z"/>
	</g>
	<g>
		<path class="st4" d="M64.27,258.1c-0.23,0-0.45-0.07-0.64-0.21c-0.65-0.48-0.78-1.63-0.8-1.76c-0.02-0.16,0.1-0.3,0.26-0.32
			c0.17-0.02,0.3,0.1,0.32,0.26c0.03,0.28,0.19,1.07,0.57,1.35c0.12,0.09,0.24,0.12,0.39,0.09c0.84-0.15,0.84-1.39,0.84-1.41
			c0-0.16,0.13-0.29,0.29-0.29c0.16,0,0.29,0.13,0.29,0.29c0,0.07,0,1.75-1.32,1.98C64.41,258.09,64.34,258.1,64.27,258.1z"/>
	</g>
	<g>
		<path class="st11" d="M87.95,333.55h-8.8c-0.14,0-0.26-0.1-0.29-0.23c-0.03-0.14,0.05-0.27,0.17-0.33l7.94-3.27l-1.89-0.61
			c-2.51-0.81-6.46,0.89-6.5,0.9c-0.15,0.06-0.32,0-0.38-0.15c-0.06-0.15,0-0.32,0.15-0.38c0.17-0.07,4.19-1.8,6.91-0.92l2.65,0.85
			c0.12,0.04,0.2,0.14,0.2,0.27c0,0.12-0.07,0.23-0.18,0.28l-7.32,3.01h7.33c0.16,0,0.29,0.13,0.29,0.29S88.11,333.55,87.95,333.55z
			"/>
	</g>
	<g>
		<path class="st11" d="M142.63,332.59c-0.12,0-0.22-0.07-0.27-0.18c-0.05-0.13-0.01-0.27,0.1-0.35l2.94-2.1l-8.21,1.25
			c-0.15,0.02-0.28-0.07-0.32-0.21c-0.04-0.14,0.03-0.29,0.16-0.35l6.34-2.87c0.15-0.07,0.32,0,0.39,0.14
			c0.07,0.15,0,0.32-0.15,0.38l-4.41,2l7.33-1.12c0.14-0.02,0.26,0.05,0.31,0.18c0.05,0.13,0.01,0.27-0.1,0.35l-2.88,2.05l6.36-1.14
			c0.15-0.03,0.31,0.08,0.34,0.23c0.03,0.16-0.08,0.31-0.24,0.34l-7.63,1.37C142.66,332.59,142.65,332.59,142.63,332.59z"/>
	</g>
	<g>
		<path d="M85.79,145.6c0,0-2.74-6.39-0.63-9.14c2.46-3.2,14.71-6.05,15.97-4.46c1.71,2.17,0.29,7.87,0.29,7.87
			s-0.74-1.11-5.15-0.48c-4.42,0.64-4.86,3.06-4.86,3.06s0.26,2-0.45,3.14c-0.7,1.14-1.59,1.32-1.59,1.32v1.68l-1.42-3.2
			L85.79,145.6z"/>
	</g>
	<g>
		<path d="M95.61,154.99c-0.99,0-1.69-1.56-1.77-1.75c-0.04-0.1-0.02-0.22,0.05-0.3c0.07-0.08,0.18-0.12,0.29-0.09l2.84,0.79
			c0.08,0.02,0.15,0.08,0.18,0.16c0.03,0.08,0.03,0.17-0.01,0.24c-0.02,0.03-0.38,0.72-1.4,0.92
			C95.73,154.98,95.67,154.99,95.61,154.99z M94.66,153.58c0.28,0.45,0.68,0.91,1.03,0.84c0.35-0.07,0.59-0.21,0.75-0.34
			L94.66,153.58z"/>
	</g>
	<g>
		<polygon class="st13" points="126.85,195.24 142,206.3 127.55,229.88 110.21,220.46 		"/>
	</g>
	<g>
		<polygon class="st14" points="129.4,197.19 145.76,207.05 129.46,232.33 112.51,222.41 		"/>
	</g>
	<g>
		<g>
			<path class="st6" d="M108.51,202.98c0,0,13.48,0.69,16.37,2.8c2.89,2.11-2.41,12.07-3.87,13.75c-1.46,1.68-13.93-4.61-13.93-4.61
				l-2.43-6.45L108.51,202.98z"/>
		</g>
	</g>
	<g>
		<g>
			<path class="st6" d="M124.87,205.79c0,0,6.42,7.28,5.88,10.64c-0.54,3.37-8.35-5.96-8.35-5.96L124.87,205.79z"/>
		</g>
	</g>
	<g>
		<g>
			<path class="st6" d="M116.37,217.84c0,0-6.96-0.19-5.33,2.14c1.63,2.33,8.9,1.07,9.96-0.44c1.06-1.51-3.19-4.83-3.19-4.83
				L116.37,217.84z"/>
		</g>
	</g>
	<g>
		<path d="M115.54,218.69c-0.02,0-0.05,0-0.07-0.01l-2.05-0.53c-0.1-0.03-0.17-0.1-0.2-0.2c-0.02-0.1,0.01-0.2,0.08-0.27l1.44-1.34
			c0.11-0.1,0.29-0.1,0.39,0.01c0.1,0.11,0.1,0.29-0.01,0.39l-1.07,0.99l1.56,0.4c0.15,0.04,0.24,0.19,0.2,0.34
			C115.77,218.61,115.66,218.69,115.54,218.69z"/>
	</g>
	<g>
		<path d="M124.82,212.76c-0.1,0-0.2-0.05-0.25-0.15c-0.59-1.13-1.7-3.04-2.17-3.35c-0.13-0.09-0.16-0.26-0.08-0.38
			c0.08-0.13,0.26-0.16,0.38-0.08c0.74,0.5,2.19,3.24,2.35,3.56c0.07,0.14,0.02,0.3-0.12,0.37
			C124.91,212.75,124.87,212.76,124.82,212.76z"/>
	</g>
	<g>
		<path d="M123.11,216.34c-0.09,0-0.18-0.04-0.23-0.13l-2.91-4.43c-0.08-0.13-0.05-0.3,0.08-0.38c0.13-0.09,0.3-0.05,0.38,0.08
			l2.91,4.43c0.08,0.13,0.05,0.3-0.08,0.38C123.22,216.33,123.16,216.34,123.11,216.34z"/>
	</g>
	<g>
		<path class="st11" d="M80.91,162.69c0,0-18.87,5.53-17.46,32.05c1.38,25.94,43.86,25.02,43.86,25.02l5.8-18.04l-23.99-12.04
			L80.91,162.69z"/>
	</g>
	<g>
		<path class="st12" d="M92.84,191.53c-0.03,0-0.05,0-0.08-0.01c-0.23-0.06-5.57-1.57-6.47-3.53c-0.18-0.4-0.19-0.79-0.01-1.17
			c0.22-0.47,0.57-0.6,0.83-0.63c1.82-0.22,5.54,4.34,5.96,4.86c0.08,0.1,0.09,0.24,0.02,0.35
			C93.04,191.48,92.94,191.53,92.84,191.53z M87.27,186.78c-0.03,0-0.05,0-0.08,0c-0.11,0.01-0.25,0.06-0.36,0.29
			c-0.1,0.22-0.1,0.43,0.01,0.67c0.54,1.17,3.35,2.32,5.14,2.91C90.46,188.9,88.29,186.78,87.27,186.78z"/>
	</g>
</g>
<g>
	<g>
		<polygon class="st0" points="238.08,205.65 198.59,205.65 209.59,183.74 249.08,183.74 		"/>
	</g>
	<g>
		<polygon class="st4" points="233.06,205.65 193.57,205.65 204.58,183.74 244.06,183.74 		"/>
	</g>
	<g>
		<rect x="213.04" y="201.59" class="st4" width="6.67" height="14.88"/>
	</g>
	<g>
		<path class="st15" d="M191.54,212.61c-0.22,0-0.4-0.18-0.4-0.4v-15.46l-4.99-9.09c-0.11-0.19-0.04-0.44,0.16-0.55
			c0.19-0.11,0.44-0.04,0.55,0.16l5.04,9.18c0.03,0.06,0.05,0.13,0.05,0.19v15.56C191.94,212.43,191.76,212.61,191.54,212.61z"/>
	</g>
	<g>
		<path class="st16" d="M246.66,345.8h-61.78v-120.3c0-7.34,5.95-13.28,13.28-13.28h48.49V345.8z"/>
	</g>
	<g>
		<path class="st15" d="M185.84,185.32c1.32,0.98,2.01,2.29,1.54,2.94c-0.47,0.64-1.93,0.37-3.26-0.61
			c-1.32-0.98-2.01-2.29-1.54-2.94C183.06,184.06,184.52,184.34,185.84,185.32z"/>
	</g>
	<g>
		<path class="st15" d="M197.04,212.56h-11v-1.6c0-1.06,0.86-1.93,1.93-1.93h7.14c1.06,0,1.93,0.86,1.93,1.93V212.56z"/>
	</g>
	<g>
		<path class="st3" d="M234.82,345.8h-61.78v-120.3c0-7.34,5.95-13.28,13.28-13.28h48.49V345.8z"/>
	</g>
	<g>
		<path class="st2" d="M191.54,346.2c-0.22,0-0.4-0.18-0.4-0.4V212.21c0-0.22,0.18-0.4,0.4-0.4c0.22,0,0.4,0.18,0.4,0.4v133.58
			C191.94,346.02,191.76,346.2,191.54,346.2z"/>
	</g>
	<g>
		<path class="st2" d="M209.48,346.2c-0.22,0-0.4-0.18-0.4-0.4V212.21c0-0.22,0.18-0.4,0.4-0.4c0.22,0,0.4,0.18,0.4,0.4v133.58
			C209.89,346.02,209.71,346.2,209.48,346.2z"/>
	</g>
</g>
</svg>
