<?xml version="1.0" encoding="utf-8"?>
<!-- Generator: Adobe Illustrator 23.0.0, SVG Export Plug-In . SVG Version: 6.00 Build 0)  -->
<svg version="1.1" id="Layer_1" xmlns="http://www.w3.org/2000/svg" xmlns:xlink="http://www.w3.org/1999/xlink" x="0px" y="0px"
	 viewBox="0 0 820.12 400" style="enable-background:new 0 0 820.12 400;" xml:space="preserve">
<style type="text/css">
	.st0{fill:#EEECF1;}
	.st1{fill:#DAD4DD;}
	.st2{fill:#92B4EA;}
	.st3{fill:#DD857A;}
	.st4{fill:#E6F4FF;}
	.st5{fill:#A2C5F9;}
	.st6{fill:#FFFFFF;}
	.st7{fill:#7C576C;}
	.st8{fill:#B26756;}
	.st9{fill:#F7B369;}
	.st10{fill:#40507F;}
	.st11{fill:#FF9C85;}
	.st12{fill:#A37B90;}
	.st13{fill:#E59E00;}
	.st14{fill:#FFEEBD;}
	.st15{opacity:0.75;}
	.st16{fill:#E5E3E8;}
	.st17{fill:#C8C0CC;}
	.st18{fill:#B8AFBC;}
	.st19{fill:#F48462;}
	.st20{fill:#DD7258;}
	.st21{fill:#68B6D8;}
	.st22{fill:#FCA397;}
	.st23{fill:#D0C9D3;}
	.st24{fill:#EFA459;}
	.st25{fill:#6876AA;}
	.st26{fill:#8E657D;}
	.st27{fill:#5C69A5;}
	.st28{fill:#E89442;}
	.st29{fill:#F28F7C;}
	.st30{fill:#CBC4CE;}
	.st31{fill:#DDD7E0;}
</style>
<g>
	<g>
		<rect x="0.14" y="305.81" class="st0" width="819.98" height="94.19"/>
	</g>
	<g>
		<path class="st1" d="M251.94,399.73c-0.05,0-0.11-0.01-0.16-0.03L58.11,316.12c-0.2-0.09-0.3-0.32-0.21-0.53
			c0.09-0.2,0.33-0.3,0.53-0.21l193.67,83.58c0.2,0.09,0.3,0.32,0.21,0.53C252.24,399.64,252.09,399.73,251.94,399.73z"/>
	</g>
	<g>
		<path class="st1" d="M459.3,399.73c-0.05,0-0.11-0.01-0.16-0.03l-193.67-83.58c-0.2-0.09-0.3-0.32-0.21-0.53
			c0.09-0.2,0.33-0.3,0.53-0.21l193.67,83.58c0.2,0.09,0.3,0.32,0.21,0.53C459.61,399.64,459.46,399.73,459.3,399.73z"/>
	</g>
	<g>
		<path class="st1" d="M683.88,399.73c-0.05,0-0.11-0.01-0.16-0.03l-193.67-83.58c-0.2-0.09-0.3-0.32-0.21-0.53
			c0.09-0.21,0.33-0.3,0.53-0.21l193.67,83.58c0.2,0.09,0.3,0.32,0.21,0.53C684.18,399.64,684.04,399.73,683.88,399.73z"/>
	</g>
	<g>
		<rect x="0.14" y="305.81" class="st1" width="357.57" height="9.93"/>
	</g>
</g>
<g>
	<g>
		<path class="st2" d="M624.09,102.04c0,0-10.77,0.95-14.82,6.16c-4.05,5.2,1.3,37.81,1.59,38.26c0.29,0.45,7.79,3.78,20.87,3.49
			c13.08-0.29,16.26-2.79,16.69-3.49s3.18-37.52,0-40.64C645.24,102.7,631.97,101.09,624.09,102.04z"/>
	</g>
	<g>
		<g>
			<g>
				<g>
					<path class="st3" d="M630.5,96.41l-0.16,7.01c0,0-1.31,1.99-5.42,2.23c-3.06,0.18-4.12-0.53-4.12-0.53l0.5-3.54l0.5-3.45
						l7.44-1.46L630.5,96.41z"/>
				</g>
			</g>
		</g>
	</g>
	<g>
		<g>
			<g>
				<g>
					<path d="M629.26,96.66c-0.02,0.19-0.1,0.42-0.22,0.67c-1.65,3.47-5.95,4.13-7.72,4.24l0.5-3.45L629.26,96.66z"/>
				</g>
			</g>
		</g>
	</g>
	<g>
		<g>
			<g>
				<g>
					<path class="st3" d="M620.61,82.12c0,0-3.87,8.7-2.53,13.62c1.34,4.91,5.81,4.17,8.49,3.24c2.68-0.93,3.93-2.56,3.93-2.56
						s2.49,0.86,4.18-1.45c1.69-2.31,0.68-4.99-0.75-5.61c-1.42-0.62-3.12,0.4-3.12,0.4l1.35-2.53
						C632.16,87.23,626.65,74.3,620.61,82.12z"/>
				</g>
			</g>
		</g>
	</g>
	<g>
		<path d="M620.94,93.2c-0.11,0-0.22-0.07-0.25-0.19c-0.58-1.86,0.74-3.75,0.79-3.83c0.08-0.12,0.25-0.15,0.37-0.06
			c0.12,0.08,0.15,0.25,0.06,0.37c-0.01,0.02-1.22,1.76-0.72,3.37c0.04,0.14-0.03,0.29-0.17,0.33
			C620.99,93.19,620.96,93.2,620.94,93.2z"/>
	</g>
	<g>
		<path d="M631.18,93.84c-0.07,0-0.13-0.02-0.18-0.07c-0.11-0.1-0.11-0.27-0.01-0.37l2.37-2.51c0.1-0.11,0.27-0.11,0.37-0.01
			c0.11,0.1,0.11,0.27,0.01,0.37l-2.37,2.51C631.32,93.81,631.25,93.84,631.18,93.84z"/>
	</g>
	<g>
		<path d="M633.69,93.17c-0.04,0-1.68-0.25-1.68-0.25c-0.14-0.02-0.24-0.16-0.22-0.3c0.02-0.14,0.15-0.24,0.3-0.22l1.64,0.25
			c0.14,0.02,0.24,0.16,0.22,0.3C633.93,93.07,633.82,93.17,633.69,93.17z"/>
	</g>
	<g>
		<path d="M624.89,89.94c-0.18-0.02-0.28-0.15-0.26-0.3l0.21-1.63c0.02-0.14,0.15-0.25,0.29-0.23c0.14,0.02,0.25,0.15,0.23,0.29
			l-0.21,1.63C625.14,89.84,625.02,89.94,624.89,89.94z"/>
	</g>
	<g>
		<path d="M620.06,89.55c-0.18-0.02-0.28-0.16-0.26-0.3l0.24-1.62c0.02-0.14,0.16-0.24,0.3-0.22c0.14,0.02,0.24,0.16,0.22,0.3
			l-0.24,1.62C620.31,89.46,620.19,89.55,620.06,89.55z"/>
	</g>
	<g>
		<path d="M626.01,86.96c-0.09,0-0.18-0.05-0.23-0.14c-0.42-0.77-1.49-0.52-1.53-0.51c-0.14,0.03-0.28-0.05-0.32-0.19
			c-0.04-0.14,0.05-0.28,0.19-0.32c0.06-0.01,1.5-0.35,2.12,0.77c0.07,0.13,0.02,0.29-0.1,0.36
			C626.09,86.95,626.05,86.96,626.01,86.96z"/>
	</g>
	<g>
		<path d="M619.71,86.3c-0.06,0-0.11-0.02-0.16-0.05c-0.12-0.09-0.14-0.25-0.05-0.37c0.02-0.02,0.46-0.6,1.1-0.66
			c0.34-0.04,0.66,0.08,0.95,0.33c0.11,0.1,0.12,0.26,0.03,0.37c-0.1,0.11-0.26,0.12-0.37,0.03c-0.18-0.16-0.36-0.23-0.55-0.21
			c-0.4,0.04-0.73,0.45-0.73,0.46C619.87,86.27,619.79,86.3,619.71,86.3z"/>
	</g>
	<g>
		<path d="M629.97,90.35c0,0-2.37-1.6-2.22-4.03c0.14-2.43,0.68-3.05,0.68-3.05s-2.76-0.14-5.05-0.89
			c-1.49-0.48-2.13-1.02-2.13-1.02l-0.64,0.75c-0.7-0.03-2.29-4.26-1.24-5.01c1.05-0.75,6.67,1.21,6.67,1.21s5.92-1.39,9.38,2.82
			c3.46,4.21-0.42,9.17-0.42,9.17S633.98,88.13,629.97,90.35z"/>
	</g>
	<g>
		<path d="M623.16,96.11c-0.8,0-1.38-0.53-1.41-0.56c-0.07-0.06-0.1-0.15-0.08-0.24c0.02-0.09,0.08-0.16,0.17-0.2l2.26-0.85
			c0.07-0.03,0.14-0.02,0.21,0.01c0.07,0.03,0.11,0.09,0.14,0.15c0.01,0.02,0.19,0.58-0.06,1.06c-0.14,0.27-0.38,0.45-0.71,0.55
			C623.5,96.08,623.32,96.11,623.16,96.11z M622.51,95.42c0.26,0.12,0.62,0.22,1.01,0.1c0.19-0.06,0.32-0.15,0.39-0.29
			c0.06-0.12,0.08-0.25,0.07-0.37L622.51,95.42z"/>
	</g>
	<g>
		<path class="st3" d="M578.2,120.62l-0.25-1.56c0,0-6-4.57-9.69-6.08c-1.55-0.63-3.73-0.11-1.89,1.95
			c0.99,1.11,1.49,2.43,1.49,2.43s-2.97-0.94-5-2.28c-1.3-0.86-3.21-4.33-4.32-3.58c-1.78,1.2,0.27,4.58,0.27,4.58
			s-0.92-4.29-2.68-2.62c-1.75,1.67,3.02,10.1,5.3,12.11c2.27,2.01,14.26,4.36,14.26,4.36L578.2,120.62z"/>
	</g>
	<g>
		<path d="M565.57,119.2c-2.82-0.28-5.35-2.64-5.46-2.74c-0.11-0.1-0.11-0.27-0.01-0.37c0.1-0.11,0.27-0.11,0.37-0.01
			c0.03,0.02,2.51,2.34,5.12,2.6c0.15,0.01,0.25,0.14,0.24,0.29C565.82,119.1,565.7,119.2,565.57,119.2z"/>
	</g>
	<g>
		<path d="M562.46,121.14c-0.06,0-0.11-0.02-0.16-0.05l-2.51-1.88c-0.12-0.09-0.14-0.25-0.05-0.37c0.09-0.12,0.26-0.14,0.37-0.05
			l2.36,1.77l5.1-3.1c0.12-0.08,0.29-0.04,0.36,0.09c0.08,0.13,0.04,0.29-0.09,0.36l-5.26,3.19
			C562.56,121.13,562.51,121.14,562.46,121.14z"/>
	</g>
	<g>
		<path d="M572.57,121.05c-0.03,0-0.05,0-0.08-0.01c-3-0.95-4.89-3.08-4.97-3.17c-0.1-0.11-0.08-0.28,0.02-0.37
			c0.11-0.1,0.28-0.08,0.37,0.02c0.02,0.02,1.88,2.11,4.74,3.01c0.14,0.04,0.22,0.19,0.17,0.33
			C572.79,120.97,572.68,121.05,572.57,121.05z"/>
	</g>
	<g>
		<path class="st2" d="M610.61,106.81c0,0-12.21,10.79-22.07,11.42c-4.75,0.3-11.13-1.97-11.13-1.97l-5.67,14.83
			c0,0,19.92,18.88,40.21,4C617.79,130.82,610.61,106.81,610.61,106.81z"/>
	</g>
	<g>
		<path class="st4" d="M609.17,125.42c-0.15,0-0.26-0.12-0.26-0.26c0-1.86,3.14-11.4,3.28-11.8c0.05-0.14,0.19-0.21,0.33-0.17
			c0.14,0.05,0.21,0.2,0.17,0.33c-0.03,0.1-3.25,9.86-3.25,11.63C609.43,125.3,609.32,125.42,609.17,125.42z"/>
	</g>
	<g>
		<polygon class="st5" points="623.77,106.16 619.81,132.42 623.09,132.42 626.01,105.62 		"/>
	</g>
	<g>
		<path class="st4" d="M574.88,133.69l-2.88-0.96c-0.37-0.13-0.58-0.53-0.45-0.91l5.24-15.71c0.13-0.37,0.53-0.58,0.91-0.45
			l2.88,0.96c0.37,0.13,0.58,0.53,0.45,0.91l-5.24,15.71C575.66,133.62,575.25,133.82,574.88,133.69z"/>
	</g>
	<g>
		<path class="st3" d="M628.46,141.73c0,0-6.48,2.62-7.76,2.44c-1.28-0.17-5.89-0.69-6.08-1.66l1.74-2.97c0,0-2.58,1.08-4.33,0.17
			c-1.75-0.91-3.85-2.73-4.27-4.12c-0.43-1.39,1.59-1.11,1.59-1.11s-2.28-1.42,0.62-2.63c2.89-1.21,15.4-3.01,20.6,0.25
			C635.78,135.36,628.46,141.73,628.46,141.73z"/>
	</g>
	<g>
		<path d="M609.35,134.74c-0.11,0-0.21-0.07-0.25-0.18c-0.05-0.14,0.03-0.29,0.16-0.33c3.13-1.06,6.35-0.62,6.49-0.6
			c0.14,0.02,0.25,0.15,0.22,0.3c-0.02,0.14-0.15,0.25-0.3,0.22c-0.03,0-3.24-0.44-6.25,0.58
			C609.41,134.74,609.38,134.74,609.35,134.74z"/>
	</g>
	<g>
		<path class="st6" d="M615.78,143.2h-33.36l-9.53-21.55h32.04c0.8,0,1.52,0.47,1.85,1.2L615.78,143.2z"/>
	</g>
	<g>
		<path class="st7" d="M612.88,143.2h-33.36l-8.5-19.23c-0.48-1.09,0.32-2.32,1.51-2.32h30.83L612.88,143.2z"/>
	</g>
	<g>
		<path d="M626.96,145.92h-47.1c-0.75,0-1.36-0.61-1.36-1.36c0-0.75,0.61-1.36,1.36-1.36h47.1c0.75,0,1.36,0.61,1.36,1.36
			C628.32,145.31,627.71,145.92,626.96,145.92z"/>
	</g>
	<g>
		<path class="st2" d="M648.42,105.82c0,0,18.66,20.31,15.62,33.53c-3.03,13.22-39.86,4.58-39.86,4.58l0.4-15.45l19.14-3
			L648.42,105.82z"/>
	</g>
	<g>
		<path class="st4" d="M650.08,126.4c-2.02,0-4.7-0.43-5.8-0.62c-0.11-0.02-0.2-0.11-0.21-0.22c-0.02-0.11,0.04-0.22,0.14-0.27
			c0.23-0.12,5.73-3,8.02-0.55c0.37,0.4,0.47,0.75,0.31,1.05C652.28,126.24,651.3,126.4,650.08,126.4z M645.2,125.39
			c3.21,0.5,6.56,0.69,6.86,0.14c0.03-0.06-0.01-0.2-0.23-0.44C650.28,123.43,646.75,124.71,645.2,125.39z"/>
	</g>
	<g>
		<path class="st4" d="M644.32,125.78c-0.05,0-0.1-0.02-0.15-0.05c-2.03-1.4-0.46-5.59-0.4-5.77c0.05-0.14,0.21-0.2,0.34-0.15
			c0.14,0.05,0.21,0.2,0.15,0.34c-0.02,0.04-1.49,3.97,0.2,5.14c0.12,0.08,0.15,0.25,0.07,0.37
			C644.49,125.74,644.41,125.78,644.32,125.78z"/>
	</g>
	<g>
		<path class="st4" d="M627.53,144.95h-3.04c-0.4,0-0.72-0.32-0.72-0.72v-16.57c0-0.4,0.32-0.72,0.72-0.72h3.04
			c0.4,0,0.72,0.32,0.72,0.72v16.57C628.24,144.63,627.92,144.95,627.53,144.95z"/>
	</g>
	<g>
		<path class="st6" d="M594.71,132.42c0,1.56-1.27,2.83-2.83,2.83c-1.56,0-2.83-1.27-2.83-2.83c0-1.56,1.27-2.83,2.83-2.83
			C593.44,129.59,594.71,130.86,594.71,132.42z"/>
	</g>
	<g>
		<path class="st4" d="M621.19,102.47c0,0-2.23,7.48-1.48,7.34c0.75-0.15,5.22-4.16,5.22-4.16s3.26,4.13,4.32,4.16
			c1.07,0.03,1.44-8.02,1.44-8.02s-1.1,2.52-5.05,3.08C621.7,105.44,621.19,102.47,621.19,102.47z"/>
	</g>
</g>
<g>
	<g>
		<path class="st8" d="M672.1,144.06l-4.91,22.53c0,0-3.54,12.73-3.54,15.79s5.56,7.3,5.56,7.3l1.06-5.03c0,0-0.45-2.8,0.21-4.99
			c0.67-2.18,1.88,0.47,1.88,0.47l4.97-5.91l8.62-25.88L672.1,144.06z"/>
	</g>
	<g>
		<path class="st9" d="M733.46,136.37c0,0-5.2-19.64-16.27-27.32c-11.07-7.68-31.59-5.95-36.6-1.64
			c-4.76,4.09-11.3,26.26-11.3,26.26l8.58,8.58l-1.39,13.09l40.1,2.6l-0.07-21.15L733.46,136.37z"/>
	</g>
	<g>
		<g>
			<path class="st8" d="M701.55,97.57l0.09,6.86c0,0-1.21,1.99-5.22,2.37c-2.99,0.28-3.91-1.67-3.91-1.67l0.23-2.19l0.37-3.4
				l7.23-1.69L701.55,97.57z"/>
		</g>
	</g>
	<g>
		<g>
			<path d="M700.34,97.85c-0.01,0.19-0.08,0.41-0.19,0.67c-1.49,3.45-5.68,4.25-7.41,4.42l0.37-3.4L700.34,97.85z"/>
		</g>
	</g>
	<g>
		<g>
			<path class="st8" d="M691.37,83.92c0,0-3.49,8.66-2,13.42c1.48,4.76,5.84,3.88,8.43,2.88c2.59-1,3.76-2.64,3.76-2.64
				s2.47,0.76,4.04-1.56c1.57-2.32,0.49-4.9-0.93-5.46c-1.41-0.56-3.04,0.5-3.04,0.5l1.23-2.52
				C702.85,88.52,697.01,76.06,691.37,83.92z"/>
		</g>
	</g>
	<g>
		<path d="M701.92,94.73c-0.08,0-0.15-0.04-0.2-0.1c-0.08-0.11-0.06-0.27,0.05-0.36l3.06-2.27c0.11-0.08,0.27-0.06,0.35,0.05
			c0.08,0.11,0.06,0.27-0.05,0.36l-3.06,2.27C702.03,94.71,701.97,94.73,701.92,94.73z"/>
	</g>
	<g>
		<path d="M704.74,94.65c-0.02,0-0.04,0-0.06-0.01l-2.04-0.5c-0.14-0.03-0.22-0.17-0.19-0.31c0.03-0.13,0.17-0.22,0.31-0.19
			l2.04,0.5c0.14,0.03,0.22,0.17,0.19,0.31C704.96,94.57,704.85,94.65,704.74,94.65z"/>
	</g>
	<g>
		<path d="M696.99,87.88c-0.1,0-0.2-0.06-0.24-0.17c-0.49-1.36-1.71-1.17-1.76-1.16c-0.13,0.03-0.27-0.07-0.29-0.21
			c-0.02-0.14,0.07-0.27,0.2-0.29c0.59-0.11,1.82,0.07,2.33,1.49c0.05,0.13-0.02,0.28-0.15,0.32
			C697.04,87.87,697.01,87.88,696.99,87.88z"/>
	</g>
	<g>
		<path d="M690.5,87.21c-0.07,0-0.14-0.03-0.19-0.09c-0.09-0.11-0.08-0.27,0.03-0.36c0.26-0.22,1.06-0.91,1.39-0.54
			c0.09,0.11,0.08,0.27-0.02,0.36c-0.07,0.06-0.17,0.08-0.26,0.05c-0.06,0.01-0.28,0.09-0.78,0.52
			C690.62,87.19,690.56,87.21,690.5,87.21z"/>
	</g>
	<g>
		<path d="M691.59,94.4c-0.06,0-0.11-0.02-0.16-0.06c-0.74-0.59-1.1-1.25-1.05-1.96c0.1-1.46,1.92-2.55,1.99-2.59
			c0.12-0.07,0.28-0.03,0.35,0.09c0.07,0.12,0.03,0.28-0.09,0.35c-0.02,0.01-1.66,1-1.75,2.19c-0.04,0.53,0.25,1.05,0.86,1.53
			c0.11,0.09,0.13,0.25,0.04,0.36C691.74,94.37,691.67,94.4,691.59,94.4z"/>
	</g>
	<g>
		<path d="M690.58,90.51c-0.02,0-0.04,0-0.06-0.01c-0.14-0.04-0.22-0.17-0.18-0.31l0.41-1.58c0.04-0.13,0.17-0.22,0.31-0.18
			c0.14,0.04,0.22,0.17,0.18,0.31l-0.41,1.58C690.79,90.43,690.69,90.51,690.58,90.51z"/>
	</g>
	<g>
		<path d="M694.92,90.79c-0.02,0-0.04,0-0.06-0.01c-0.14-0.04-0.22-0.17-0.18-0.31l0.41-1.58c0.04-0.14,0.17-0.22,0.31-0.18
			c0.14,0.04,0.22,0.17,0.18,0.31l-0.41,1.58C695.14,90.71,695.03,90.79,694.92,90.79z"/>
	</g>
	<g>
		<path class="st4" d="M700.93,146.98l-15.53,9.48c-0.56,0.34-1.44,0.2-1.96-0.32l-20.99-21.16c-0.52-0.52-0.48-1.23,0.08-1.57
			l15.53-9.48c0.56-0.34,1.44-0.2,1.96,0.32l20.99,21.16C701.53,145.93,701.5,146.64,700.93,146.98z"/>
	</g>
	<g>
		<path class="st10" d="M699.12,148.08l-15.53,9.48c-0.56,0.34-1.44,0.2-1.96-0.32l-20.99-21.16c-0.52-0.52-0.48-1.23,0.08-1.57
			l15.53-9.48c0.56-0.34,1.44-0.2,1.96,0.32l20.99,21.16C699.72,147.03,699.68,147.74,699.12,148.08z"/>
	</g>
	<g>
		<path class="st8" d="M700.23,129.95c-0.81-0.98-2.03-1.52-3.3-1.44c-2.07,0.13-5.19,0.37-5.92,0.7c-1.1,0.51-3.6,2.52-3.6,2.52
			l1.03,1.46c0,0-9.51,4.97-8.75,6.93c0.52,1.33,4.75-0.58,4.75-0.58s-4.22,2.34-3.49,3.8c0.73,1.46,6.17-0.84,6.17-0.84
			s-4.2,2.69-1.97,3.35c2.23,0.66,17.39-3.51,18.18-7.97C703.86,134.96,701.74,131.78,700.23,129.95z"/>
	</g>
	<g>
		<path d="M688.08,133.32c-0.09,0-0.17-0.04-0.22-0.12c-0.07-0.12-0.04-0.28,0.08-0.35l2.42-1.51c0.12-0.07,0.27-0.04,0.35,0.08
			c0.07,0.12,0.04,0.28-0.08,0.35l-2.42,1.51C688.17,133.31,688.13,133.32,688.08,133.32z"/>
	</g>
	<g>
		<path d="M683.7,140.06c-0.09,0-0.18-0.05-0.22-0.13c-0.07-0.12-0.02-0.28,0.1-0.34l6.35-3.41c0.12-0.07,0.28-0.02,0.34,0.1
			c0.07,0.12,0.02,0.28-0.1,0.34l-6.35,3.41C683.78,140.05,683.74,140.06,683.7,140.06z"/>
	</g>
	<g>
		<path d="M686.38,143.26c-0.09,0-0.18-0.05-0.22-0.13c-0.07-0.12-0.02-0.28,0.1-0.34l6.45-3.5c0.12-0.07,0.28-0.02,0.34,0.1
			c0.07,0.12,0.02,0.28-0.1,0.34l-6.45,3.5C686.46,143.25,686.42,143.26,686.38,143.26z"/>
	</g>
	<g>
		<path class="st8" d="M732.22,136.4c0,0,3.5,13.32-8.7,15.12c-12.2,1.81-23.18-10.37-23.18-10.37l-1.52-12.28l24.14,7.77
			L732.22,136.4z"/>
	</g>
	<g>
		<path d="M693.84,96.24c-0.12,0-0.23-0.09-0.25-0.22c-0.02-0.14,0.07-0.27,0.21-0.29c0.01,0,1.33-0.22,1.94-1.39
			c0.06-0.13,0.22-0.17,0.34-0.11c0.12,0.06,0.17,0.22,0.11,0.34c-0.73,1.4-2.24,1.64-2.31,1.65
			C693.87,96.24,693.86,96.24,693.84,96.24z"/>
	</g>
	<g>
		<path d="M700.83,92.44c0,0,0.72-3.42,0.81-3.74c0.09-0.32-2.39-4.15-6.52-4.71c-4.08-0.56-4,0.58-4,0.58s-1.04-5.76-0.34-6.22
			c0.7-0.45,1.15,0.39,1.15,0.39s0.82-2.87,2.98-2.54c1.7,0.27,2.08,2.03,2.08,2.03s0.63-2.31,2.95-1.41
			c2.31,0.9,4.45,6.54,4.45,6.54s2.48-0.39,2.93,1.69c0.45,2.09-1.37,6.75-1.37,6.75s-0.67-1.37-2.52-1.11
			C701.57,90.95,700.83,92.44,700.83,92.44z"/>
	</g>
	<g>
		<path class="st10" d="M696.22,106.87c-2.83,0-4.78-1.62-4.81-1.65c-0.11-0.09-0.12-0.25-0.03-0.36c0.09-0.11,0.25-0.12,0.36-0.03
			c0.18,0.16,4.55,3.77,9.74-0.6c0.1-0.09,0.27-0.08,0.36,0.03c0.09,0.11,0.08,0.27-0.03,0.36
			C699.78,106.33,697.85,106.87,696.22,106.87z"/>
	</g>
</g>
<g>
	<g>
		<path class="st10" d="M441.81,107.45c0,0-24.15,16.04-23.47,33.1c0.43,10.92,19.81,12.55,25.53,10.39
			c5.73-2.16,3.77-30.42,3.77-30.42L441.81,107.45z"/>
	</g>
	<g>
		<path class="st10" d="M455.23,104.57c0,0,9.94-0.02,13.69,4.21c3.75,4.24,8.3,44.91,6.55,46.99c-1.87,2.23-27.31,2.34-32.79,1.42
			c-5.48-0.92-5.48-0.92-5.48-0.92s1.94-47.3,4.61-48.83C445.2,105.51,455.23,104.57,455.23,104.57z"/>
	</g>
	<g>
		<path d="M462.44,91.5c0,0-0.24,4.28-2.16,4.47c-1.93,0.2-4.76-2.24-4.76-2.24l1.33-4.81L462.44,91.5z"/>
	</g>
	<g>
		<g>
			<path class="st11" d="M456.42,99.53l-0.06,6.71c0,0-1.23,1.92-5.15,2.2c-2.93,0.21-3.95-0.46-3.95-0.46l0.44-3.39l0.43-3.31
				l7.1-1.5L456.42,99.53z"/>
		</g>
	</g>
	<g>
		<g>
			<path d="M455.23,99.79c-0.02,0.18-0.09,0.4-0.2,0.65c-1.53,3.34-5.64,4.02-7.33,4.16l0.43-3.31L455.23,99.79z"/>
		</g>
	</g>
	<g>
		<g>
			<path class="st11" d="M446.77,85.98c0,0-3.6,8.38-2.25,13.07c1.35,4.69,5.62,3.92,8.17,2.99c2.55-0.92,3.73-2.5,3.73-2.5
				s2.4,0.79,3.98-1.44c1.58-2.23,0.58-4.78-0.79-5.36c-1.37-0.58-2.99,0.42-2.99,0.42l1.26-2.44
				C457.89,90.72,452.45,78.42,446.77,85.98z"/>
		</g>
	</g>
	<g>
		<path d="M456.85,96.76c-0.08,0-0.15-0.04-0.2-0.1c-0.08-0.11-0.05-0.27,0.06-0.34l3.04-2.15c0.11-0.08,0.26-0.05,0.34,0.06
			c0.08,0.11,0.05,0.27-0.06,0.34l-3.04,2.15C456.95,96.75,456.9,96.76,456.85,96.76z"/>
	</g>
	<g>
		<path d="M459.6,96.75c-0.02,0-0.04,0-0.06-0.01l-1.99-0.53c-0.13-0.04-0.21-0.17-0.17-0.3c0.04-0.13,0.17-0.21,0.3-0.17l1.99,0.53
			c0.13,0.04,0.21,0.17,0.17,0.3C459.81,96.68,459.71,96.75,459.6,96.75z"/>
	</g>
	<g>
		<path d="M452.36,89.54c-0.07,0-0.15-0.03-0.2-0.1c-0.85-1.13-1.94-0.59-1.98-0.56c-0.12,0.06-0.27,0.02-0.33-0.1
			c-0.06-0.12-0.02-0.27,0.1-0.33c0.51-0.27,1.71-0.47,2.61,0.7c0.08,0.11,0.06,0.26-0.05,0.35
			C452.46,89.53,452.41,89.54,452.36,89.54z"/>
	</g>
	<g>
		<path d="M445.85,89.17c-0.07,0-0.14-0.03-0.19-0.09c-0.09-0.11-0.07-0.26,0.04-0.35c1-0.81,2.03-0.21,2.07-0.18
			c0.12,0.07,0.16,0.22,0.08,0.34c-0.07,0.12-0.22,0.15-0.34,0.08c-0.04-0.02-0.78-0.45-1.5,0.14
			C445.96,89.15,445.91,89.17,445.85,89.17z"/>
	</g>
	<g>
		<path d="M447.03,96.31c-0.11,0-0.21-0.07-0.24-0.18c-0.48-1.77,0.68-4.25,0.73-4.35c0.06-0.12,0.2-0.18,0.33-0.12
			c0.12,0.06,0.18,0.21,0.12,0.33c-0.01,0.02-1.13,2.42-0.7,4.01c0.04,0.13-0.04,0.27-0.17,0.3
			C447.07,96.3,447.05,96.31,447.03,96.31z"/>
	</g>
	<g>
		<path d="M445.86,92.39c-0.02,0-0.04,0-0.07-0.01c-0.13-0.04-0.21-0.17-0.17-0.31l0.43-1.53c0.04-0.13,0.17-0.21,0.3-0.17
			c0.13,0.04,0.21,0.17,0.17,0.31l-0.43,1.53C446.06,92.32,445.96,92.39,445.86,92.39z"/>
	</g>
	<g>
		<path d="M450.1,92.52c-0.02,0-0.04,0-0.07-0.01c-0.13-0.04-0.21-0.17-0.17-0.31l0.43-1.54c0.04-0.13,0.17-0.21,0.3-0.17
			c0.13,0.04,0.21,0.17,0.17,0.31l-0.43,1.54C450.31,92.44,450.21,92.52,450.1,92.52z"/>
	</g>
	<g>
		<path d="M446.29,87.19c0,0,0.5-0.67,2.17-0.67c1.67,0,2.64,1.19,2.64,1.19s0.14,3.03,2.4,4.55c2.26,1.52,3.13,0.89,3.13,0.89
			l1.66-0.57l1.23-2.4L454.79,85l-5.68-2.43l-2.82,3.13V87.19z"/>
	</g>
	<g>
		<path d="M448.7,98.25c-0.1,0-0.15-0.01-0.16-0.01c-0.14-0.01-0.23-0.14-0.22-0.27c0.01-0.14,0.14-0.23,0.27-0.22
			c0.05,0,1.39,0.12,1.97-1.09c0.06-0.12,0.21-0.17,0.33-0.12c0.12,0.06,0.18,0.21,0.12,0.33C450.41,98.14,449.14,98.25,448.7,98.25
			z"/>
	</g>
	<g>
		<path class="st12" d="M461.5,95.44c1.18-1.2,2.15-4.15,1.91-5.81l-0.05-0.34c0,0,1.95-0.21,1.3-2.81
			c-0.65-2.6-3.96-6.06-9.12-7.35c-5.16-1.3-9.25,6.56-9.25,6.56s4.32-0.23,7.56,2.23c3.24,2.45,4.43,4.66,4.43,4.66L461.5,95.44z"
			/>
	</g>
	<g>
		<path class="st13" d="M423.66,139.99h29.88c0.63,0,1.14-0.51,1.14-1.14v-2.75c0-0.63-0.51-1.14-1.14-1.14h-29.88
			c-0.63,0-1.14,0.51-1.14,1.14v2.75C422.52,139.48,423.03,139.99,423.66,139.99z"/>
	</g>
	<g>
		<path class="st9" d="M424.96,139.99h29.88c0.63,0,1.14-0.51,1.14-1.14v-2.75c0-0.63-0.51-1.14-1.14-1.14h-29.88
			c-0.63,0-1.14,0.51-1.14,1.14v2.75C423.82,139.48,424.33,139.99,424.96,139.99z"/>
	</g>
	<g>
		<path class="st14" d="M423.39,144.8h31.01c0.63,0,1.14-0.51,1.14-1.14v-2.75c0-0.63-0.51-1.14-1.14-1.14h-31.01
			c-0.63,0-1.14,0.51-1.14,1.14v2.75C422.25,144.28,422.76,144.8,423.39,144.8z"/>
	</g>
	<g>
		<path class="st6" d="M424.69,144.8h31.01c0.63,0,1.14-0.51,1.14-1.14v-2.75c0-0.63-0.51-1.14-1.14-1.14h-31.01
			c-0.63,0-1.14,0.51-1.14,1.14v2.75C423.55,144.28,424.06,144.8,424.69,144.8z"/>
	</g>
	<g>
		<path class="st10" d="M464.95,106.24c0,0,27.62,9.99,25.31,30.88c-2.31,20.89-31.28,16.27-31.28,16.27l-0.37-17.72l8.87-4.09
			L464.95,106.24z"/>
	</g>
	<g>
		<path class="st11" d="M418.46,137.12c0,0-4.33-2.04-1.94-3.55c2.03-1.28,11.84,1.41,12.61,2.42c0.87,1.13-2.6,2.41-2.6,2.41
			s4.9,0.51,4.76,2.27c-0.14,1.76-4.18,1.53-4.18,1.53s3.75,0.56,2.45,3c-1.3,2.44-10.96,0.18-11.97-1.08
			c-1.01-1.26,0.58-1.92,0.58-1.92s-1.44-0.74-1.66-2.63C416.29,137.67,418.46,137.12,418.46,137.12z"/>
	</g>
	<g>
		<path d="M425.59,137.97c-0.03,0-6.16-0.77-6.16-0.77c-0.14-0.02-0.23-0.14-0.21-0.28c0.02-0.13,0.14-0.23,0.28-0.21l6.13,0.77
			c0.14,0.02,0.23,0.14,0.21,0.28C425.82,137.87,425.72,137.97,425.59,137.97z"/>
	</g>
	<g>
		<path d="M427.11,142.53c0,0-7.64-0.09-7.64-0.09c-0.14,0-0.25-0.11-0.24-0.25c0-0.14,0.13-0.26,0.25-0.24l7.64,0.09
			c0.14,0,0.25,0.11,0.24,0.25C427.35,142.43,427.24,142.53,427.11,142.53z"/>
	</g>
	<g>
		<path class="st9" d="M462.91,133.08c-0.09,0-0.18-0.05-0.22-0.13c-0.06-0.12-0.01-0.27,0.11-0.33c0.08-0.04,8.05-4.14,12.46-5.41
			c0.13-0.04,0.27,0.04,0.31,0.17c0.04,0.13-0.04,0.27-0.17,0.31c-4.36,1.25-12.29,5.33-12.37,5.37
			C462.99,133.07,462.95,133.08,462.91,133.08z"/>
	</g>
	<g>
		<path class="st9" d="M468.87,130.21c-0.04,0-0.08-0.01-0.11-0.03c-0.09-0.05-0.15-0.15-0.13-0.25c0.03-0.24,0.8-5.88,4.06-6.27
			c0.54-0.06,0.88,0.06,1.02,0.36c0.54,1.18-3.43,4.99-4.67,6.13C468.99,130.19,468.93,130.21,468.87,130.21z M472.95,124.14
			c-0.06,0-0.13,0-0.21,0.01c-2.24,0.27-3.19,3.61-3.5,5.12c2.21-2.11,4.26-4.51,4.01-5.05
			C473.23,124.18,473.14,124.14,472.95,124.14z"/>
	</g>
	<g>
		<path class="st9" d="M450.07,108.9c-0.96,0-1.96-0.2-2.92-0.7c-0.12-0.06-0.17-0.21-0.1-0.33c0.06-0.12,0.21-0.17,0.33-0.1
			c4.01,2.09,8.79-1.68,8.83-1.72c0.11-0.08,0.26-0.07,0.35,0.04c0.09,0.11,0.07,0.26-0.04,0.35
			C456.36,106.56,453.39,108.9,450.07,108.9z"/>
	</g>
	<g>
		<path class="st9" d="M463.41,89.88c-0.09,0-0.17-0.04-0.21-0.12l-0.97-1.7c-0.07-0.12-0.03-0.27,0.09-0.34
			c0.12-0.07,0.27-0.03,0.34,0.09l0.97,1.7c0.07,0.12,0.03,0.27-0.09,0.34C463.5,89.87,463.46,89.88,463.41,89.88z"/>
	</g>
	<g>
		<path class="st9" d="M438.6,134.58c-0.14,0-0.25-0.11-0.25-0.25v-4.69c0-0.14,0.11-0.25,0.25-0.25c0.14,0,0.25,0.11,0.25,0.25
			v4.69C438.85,134.47,438.74,134.58,438.6,134.58z"/>
	</g>
	<g>
		<path class="st11" d="M453.28,133.44c0,0-7.4-1.09-6.38,1.14c1.01,2.23,7.2,1.87,7.2,1.87l3.76-0.34L453.28,133.44z"/>
	</g>
	<g>
		<path class="st11" d="M459.94,135.36c0,0-2.39-0.93-3.98-1.44c-1.51-0.49-2.68-0.48-2.68-0.48l-0.65,2.36c0,0-5.4,0.85-9.26,2.51
			c-3.87,1.66-3.28,3.41-3.28,3.41s-2.48,1.4-1.51,2.48c0.97,1.08,4.95,0.29,4.95,0.29s-5.06,1.59-3.08,2.82
			c1.98,1.23,6.52,1.15,6.52,1.15s12.67,0.49,15.41-3.36C463.97,142.86,459.94,135.36,459.94,135.36z"/>
	</g>
	<g>
		<path d="M440.33,141.75c-0.13,0-0.25-0.09-0.28-0.22c-0.04-0.16,0.06-0.31,0.22-0.35l7.76-1.76c0.16-0.04,0.31,0.06,0.34,0.22
			c0.04,0.16-0.06,0.31-0.22,0.35l-7.76,1.76C440.37,141.75,440.35,141.75,440.33,141.75z"/>
	</g>
	<g>
		<path d="M443,144.87c-0.13,0-0.25-0.09-0.28-0.22c-0.04-0.16,0.06-0.31,0.22-0.35l4.86-1.12c0.15-0.04,0.31,0.06,0.35,0.22
			c0.04,0.16-0.06,0.31-0.22,0.35l-4.86,1.12C443.04,144.86,443.02,144.87,443,144.87z"/>
	</g>
</g>
<g class="st15">
	<ellipse class="st0" cx="435.49" cy="344.1" rx="381.09" ry="8.8"/>
</g>
<g>
	<rect x="535.9" y="212.01" class="st16" width="284.22" height="132.97"/>
</g>
<g>
	<rect x="693.48" y="172.38" class="st17" width="126.64" height="82.93"/>
</g>
<g>
	<g>
		<path class="st18" d="M764.76,256.39h-357v-99.08c0-6.42,5.2-11.62,11.62-11.62h345.38V256.39z"/>
	</g>
	<g>
		<path class="st17" d="M751.89,256.39h-358v-99.08c0-6.42,5.2-11.62,11.62-11.62h346.38V256.39z"/>
	</g>
	<g>
		<path class="st6" d="M751.37,172.78c0,0-357.47-1.16-357.47-1.16c-0.22,0-0.4-0.18-0.4-0.4c0-0.22,0.18-0.4,0.4-0.4
			c0,0,357.47,1.16,357.47,1.16c0.22,0,0.4,0.18,0.4,0.4C751.77,172.6,751.59,172.78,751.37,172.78z"/>
	</g>
</g>
<g>
	<g>
		<path d="M500.19,137.06c0,0,7.47-5.79,13.84-1.85c6.37,3.94,3.91,12.19,3.91,12.19s7.91,2.16,9.05,12.21
			c1.14,10.05-8.42,11.96-8.42,11.96l-16.49-9.77L500.19,137.06z"/>
	</g>
	<g>
		<path class="st9" d="M491.38,153.88c0,0-27.62,7.35-23.83,26.85c3.05,15.68,28.85-2.38,28.85-2.38L491.38,153.88z"/>
	</g>
	<g>
		<path class="st9" d="M479.83,189.4l0.12,4.63c0,0,11.81,2.39,21.43,1.45c9.62-0.94,13.17-2.72,13.17-2.72l3.49-23.62l-14.99-17.3
			l-9.75,2.8L479.83,189.4z"/>
	</g>
	<g>
		<path d="M490.19,141.2c0,0-2.47-2.59-1.88-6.72c0.4-2.8,1.61-3.73,1.61-3.73s-1.99-3.76,3.64-3.67c5.63,0.09,9.01,2.76,9.01,2.76
			s2.67-0.75,4.95,1.51c2.55,2.53,1.45,7.2,1.45,7.2L490.19,141.2z"/>
	</g>
	<g>
		<g>
			<g>
				<g>
					<path class="st19" d="M502.65,145.52l0,6.87c0,0-1.24,1.98-5.26,2.3c-2.99,0.25-3.94-1.29-3.94-1.29l0.72-6.01l7.26-1.6
						L502.65,145.52z"/>
				</g>
			</g>
		</g>
	</g>
	<g>
		<g>
			<g>
				<g>
					<path d="M502.64,145.1c-0.02,0.19-0.09,0.41-0.2,0.66c-1.53,3.43-6.94,4.86-8.67,5.02l0.41-3.39L502.64,145.1z"/>
				</g>
			</g>
		</g>
	</g>
	<g>
		<g>
			<g>
				<g>
					<path class="st19" d="M492.64,131.73c0,0-3.6,8.61-2.18,13.4c1.42,4.78,5.79,3.96,8.4,2.99c2.6-0.97,3.79-2.6,3.79-2.6
						s2.46,0.79,4.06-1.51c1.6-2.3,0.55-4.9-0.86-5.48c-1.41-0.58-3.05,0.46-3.05,0.46l1.26-2.51
						C504.07,136.49,498.38,123.94,492.64,131.73z"/>
				</g>
			</g>
		</g>
	</g>
	<g>
		<g>
			<g>
				<g>
					<path d="M502.8,138.99c0,0-3.66,0.84-6.32-3.19c-2.66-4.03-2.47-5.71-2.47-5.71l-2.44,4.29c0,0-0.64-2.91,0.48-4.81
						s2.35-1.54,2.35-1.54l8.16,1.82l2.3,6.44L502.8,138.99z"/>
				</g>
			</g>
		</g>
	</g>
	<g>
		<path d="M493.2,142.59c-0.11,0-0.21-0.07-0.25-0.18c-0.61-1.81,0.64-3.7,0.69-3.78c0.08-0.12,0.25-0.15,0.37-0.07
			c0.12,0.08,0.15,0.24,0.07,0.37c-0.01,0.02-1.15,1.75-0.63,3.32c0.05,0.14-0.03,0.29-0.17,0.33
			C493.26,142.58,493.23,142.59,493.2,142.59z"/>
	</g>
	<g>
		<path d="M503.25,142.99c-0.06,0-0.13-0.02-0.18-0.07c-0.11-0.1-0.12-0.26-0.02-0.37l2.27-2.52c0.1-0.11,0.26-0.12,0.37-0.02
			c0.11,0.1,0.12,0.26,0.02,0.37l-2.27,2.52C503.4,142.96,503.33,142.99,503.25,142.99z"/>
	</g>
	<g>
		<path d="M505.7,142.27c-0.03,0-1.65-0.21-1.65-0.21c-0.15-0.02-0.25-0.15-0.23-0.3c0.02-0.14,0.15-0.25,0.29-0.23l1.61,0.21
			c0.15,0.02,0.25,0.15,0.23,0.3C505.94,142.17,505.83,142.27,505.7,142.27z"/>
	</g>
	<g>
		<path d="M496.38,145.01c-0.67,0-1.34-0.23-1.46-0.27c-0.09-0.03-0.15-0.11-0.17-0.2c-0.02-0.09,0.02-0.19,0.09-0.25l2.25-1.86
			c0.06-0.05,0.14-0.07,0.22-0.06c0.08,0.01,0.14,0.06,0.18,0.13c0.03,0.05,0.7,1.3,0.02,2.1
			C497.24,144.91,496.82,145.01,496.38,145.01z M495.57,144.37c0.53,0.12,1.27,0.2,1.54-0.11c0.29-0.34,0.17-0.87,0.05-1.2
			L495.57,144.37z"/>
	</g>
	<g>
		<path d="M491.38,135.63c-0.12,0-0.23-0.09-0.26-0.21c-0.03-0.14,0.06-0.28,0.21-0.31l1.51-0.3c0.15-0.03,0.28,0.06,0.31,0.21
			c0.03,0.14-0.06,0.28-0.21,0.31l-1.51,0.3C491.41,135.62,491.39,135.63,491.38,135.63z"/>
	</g>
	<g>
		<path d="M497.71,136.46c-0.04,0-0.08-0.01-0.11-0.03l-2.52-1.2c-0.13-0.06-0.19-0.22-0.13-0.35c0.06-0.13,0.22-0.19,0.35-0.13
			l2.52,1.2c0.13,0.06,0.19,0.22,0.13,0.35C497.91,136.41,497.81,136.46,497.71,136.46z"/>
	</g>
	<g>
		<path d="M491.47,139.14c-0.02,0-0.05,0-0.07-0.01c-0.14-0.04-0.22-0.18-0.18-0.33l0.4-1.42l-0.4-0.46
			c-0.09-0.11-0.08-0.28,0.03-0.37c0.11-0.1,0.28-0.08,0.37,0.03l0.49,0.57c0.06,0.07,0.08,0.16,0.05,0.24l-0.43,1.56
			C491.69,139.06,491.58,139.14,491.47,139.14z"/>
	</g>
	<g>
		<path d="M495.8,139.44c-0.02,0-0.05,0-0.07-0.01c-0.14-0.04-0.22-0.18-0.18-0.33l0.39-1.42l-0.58-0.64
			c-0.1-0.11-0.09-0.28,0.02-0.37c0.11-0.1,0.27-0.09,0.37,0.02l0.67,0.75c0.06,0.07,0.08,0.16,0.06,0.25l-0.43,1.56
			C496.02,139.36,495.91,139.44,495.8,139.44z"/>
	</g>
	<g>
		<path class="st9" d="M493.29,154.63c0,0-0.53-3.68,0.48-3.84c1.01-0.16,2.15,0.53,4.51,0.11c2.36-0.42,3.63-1.19,4.37-1.19
			c0.74,0,0.22,4.57,0.22,4.57l-5.89,2.01L493.29,154.63z"/>
	</g>
	<g>
		<path class="st9" d="M492.13,170.47l1.33-17.07c0,0-11.26-0.86-11.26,29.88C482.2,195.03,492.13,170.47,492.13,170.47z"/>
	</g>
	<g>
		<path class="st20" d="M479.03,181.22c0,0,4.7-7.14,8.8-6.67c4.1,0.46,7.18,4.73,7.18,4.73L479.03,181.22z"/>
	</g>
	<g>
		<g>
			<path class="st19" d="M498.58,179.13c0,0-11.57-3.25-13.23-2.78c-1.66,0.47-8.09,5.8-7.69,7.09c0.4,1.29,1.88,0.92,1.88,0.92
				s-1.39,0.93-0.86,1.81c0.53,0.88,2.22,0.53,2.22,0.53s-1.17,0.71,0.35,1.3c1.52,0.58,5.58-0.94,5.58-0.94s2.47,2.04,6.55,1.8
				c4.09-0.23,5.4-1.23,5.4-1.23L498.58,179.13z"/>
		</g>
	</g>
	<g>
		<path class="st9" d="M502.25,151.85c0,0,16.69,0.19,25.42,13.42c8.72,13.23,2.43,25.55-10.65,28.34
			c-13.08,2.8-20.01-0.64-20.01-0.64l0.71-15.02l8.74-1.53l6.38-8.2L502.25,151.85z"/>
	</g>
	<g>
		<path class="st6" d="M506.45,176.69c-0.12,0-0.23-0.08-0.26-0.21c-0.03-0.14,0.06-0.28,0.2-0.32c0.09-0.02,9.15-2.05,14.42-2.18
			c0.13-0.02,0.27,0.11,0.27,0.26c0,0.15-0.11,0.27-0.26,0.27c-5.22,0.13-14.23,2.15-14.32,2.17
			C506.49,176.69,506.47,176.69,506.45,176.69z"/>
	</g>
	<g>
		<path class="st6" d="M514.09,175.24c-0.08,0-0.15-0.03-0.21-0.1c-0.08-0.09-0.08-0.23-0.01-0.32c0.38-0.52,3.81-5.06,5.71-4.12
			c0.38,0.19,0.43,0.47,0.42,0.61c-0.03,1.24-4.46,3.3-5.81,3.9C514.16,175.23,514.12,175.24,514.09,175.24z M519,171.1
			c-1.04,0-2.78,1.66-4.03,3.18c2.31-1.1,4.5-2.43,4.51-2.97c0-0.04-0.04-0.08-0.13-0.13C519.24,171.13,519.13,171.1,519,171.1z"/>
	</g>
	<g>
		<path class="st6" d="M498.34,153.29c-0.13,0-0.25-0.1-0.26-0.23c-0.02-0.15,0.08-0.28,0.23-0.29c1.08-0.13,4.28-0.63,4.31-0.64
			c0.14-0.03,0.28,0.08,0.3,0.22c0.02,0.14-0.08,0.28-0.22,0.3c-0.03,0.01-3.24,0.51-4.33,0.64
			C498.36,153.29,498.35,153.29,498.34,153.29z"/>
	</g>
	<g>
		<path d="M479.54,184.62c-0.08,0-0.16-0.04-0.21-0.11c-0.09-0.12-0.06-0.28,0.05-0.37l4.86-3.68c0.12-0.09,0.28-0.07,0.37,0.05
			c0.09,0.12,0.06,0.28-0.05,0.37l-4.86,3.68C479.66,184.6,479.6,184.62,479.54,184.62z"/>
	</g>
	<g>
		<path d="M480.9,186.96c-0.08,0-0.16-0.04-0.21-0.1c-0.09-0.11-0.07-0.28,0.05-0.37l4.81-3.75c0.11-0.09,0.28-0.07,0.37,0.05
			c0.09,0.11,0.07,0.28-0.05,0.37l-4.81,3.75C481.02,186.94,480.96,186.96,480.9,186.96z"/>
	</g>
	<g>
		<path class="st6" d="M483.49,174.69c-0.12,0-0.23-0.09-0.26-0.21c-1.28-6.08,1.99-12.99,2.13-13.29c0.06-0.13,0.22-0.19,0.35-0.12
			c0.13,0.06,0.19,0.22,0.12,0.35c-0.03,0.07-3.33,7.04-2.09,12.95c0.03,0.14-0.06,0.28-0.2,0.31
			C483.53,174.68,483.51,174.69,483.49,174.69z"/>
	</g>
</g>
<g>
	<g>
		<path class="st8" d="M537.14,158.7c0,0-3.4,0.64-1.75,5.37c1.65,4.72,4.08-1.66,4.08-1.66L537.14,158.7z"/>
	</g>
	<g>
		<path class="st21" d="M554.93,167.99l-17.78,7.67c0,0,1.25,12.47,13.33,14.53c12.08,2.06,16.99-12.8,16.99-12.8L554.93,167.99z"/>
	</g>
	<g>
		<path class="st8" d="M545.26,171.49c0,0,1.38,6.93-4.27,6.9c-5.65-0.02-6.23-8.07-6.23-8.07L545.26,171.49z"/>
	</g>
	<g>
		<path class="st21" d="M595.79,199.16c0,0,3.32-37.04-6.94-46.67c-10.26-9.62-30.22,1.67-30.22,1.67l1.68,47.25L595.79,199.16z"/>
	</g>
	<g>
		<path class="st8" d="M574.68,176.06c0,0-6.41-7.97-9.16-8.65c-2.75-0.68-8.96,1.34-8.88,2.11c0.09,0.76,6.09,1.01,6.09,1.01
			s-2.65,6.17-2.55,7.48s3.52,4.76,4.22,5.06c0.7,0.3,2.11-2,2.11-2s2.07,1.99,4.72,2.38c2.64,0.38,5.14-3.85,5.14-3.85
			L574.68,176.06z"/>
	</g>
	<g>
		<path d="M566.05,172.49c-0.01,0-3.62-0.19-3.62-0.19c-0.16-0.01-0.28-0.14-0.27-0.3c0.01-0.16,0.15-0.28,0.3-0.27l3.61,0.19
			c0.16,0.01,0.28,0.14,0.27,0.3C566.33,172.37,566.2,172.49,566.05,172.49z"/>
	</g>
	<g>
		<g>
			<g>
				<g>
					<path class="st8" d="M579.79,142.49l0.63,6.93c0,0-1.07,2.11-5.1,2.8c-3,0.52-3.91-0.44-3.91-0.44l-0.1-3.18l0.11-3.46
						l7.18-2.27L579.79,142.49z"/>
				</g>
			</g>
		</g>
	</g>
	<g>
		<g>
			<g>
				<g>
					<path d="M578.54,143.47c0,0.18-0.05,0.4-0.14,0.66c-1.25,3.46-5.38,4.57-7.09,4.88l0.13-3.32L578.54,143.47z"/>
				</g>
			</g>
		</g>
	</g>
	<g>
		<g>
			<g>
				<g>
					<path class="st8" d="M568.82,130.64c0,0-2.74,8.64-0.94,13.15c1.79,4.5,5.94,3.33,8.38,2.16c2.44-1.16,3.45-2.84,3.45-2.84
						s2.45,0.55,3.8-1.81c1.35-2.37,0.11-4.79-1.3-5.22c-1.41-0.44-2.91,0.71-2.91,0.71l1-2.53
						C580.28,134.24,573.7,122.6,568.82,130.64z"/>
				</g>
			</g>
		</g>
	</g>
	<g>
		<path d="M570.28,141.07c-0.09,0-0.18-0.05-0.22-0.15c-0.74-1.69,0.3-3.62,0.34-3.7c0.07-0.12,0.21-0.16,0.33-0.1
			c0.12,0.06,0.16,0.21,0.1,0.33c-0.01,0.02-0.97,1.8-0.32,3.27c0.05,0.12,0,0.27-0.13,0.32
			C570.34,141.07,570.31,141.07,570.28,141.07z"/>
	</g>
	<g>
		<path d="M580.03,140.59c-0.05,0-0.1-0.02-0.15-0.05c-0.11-0.08-0.13-0.23-0.05-0.34l1.98-2.63c0.08-0.11,0.23-0.13,0.34-0.05
			c0.11,0.08,0.13,0.23,0.05,0.34l-1.98,2.63C580.18,140.56,580.11,140.59,580.03,140.59z"/>
	</g>
	<g>
		<path d="M582.34,139.69c-0.01,0-1.59-0.06-1.59-0.06c-0.13-0.01-0.24-0.12-0.23-0.25c0-0.13,0.11-0.23,0.24-0.23
			c0.01,0,1.59,0.06,1.59,0.06c0.13,0.01,0.24,0.12,0.23,0.25C582.57,139.58,582.47,139.69,582.34,139.69z"/>
	</g>
	<g>
		<path d="M579.28,136.78c0,0-0.79,0.66-1.52-0.24c-0.73-0.9,0.3-3.91,0.3-3.91s-2.49,0.87-4.17,0.2c-1.68-0.67-2.71-2.91-2.71-2.91
			s-0.89,2.55-4.5,1.88c-3.61-0.67-4.81-5.35-1.19-6.74c3.62-1.39,5.84,0.03,5.84,0.03s0.08-3.5,4.88-2.32
			c4.37,1.08,5.67,6.26,5.67,6.26s2.53-0.17,3.33,2.52c0.79,2.69-2.19,5.03-2.19,5.03S581.08,135.71,579.28,136.78z"/>
	</g>
	<g>
		<path d="M573.67,137.57c-0.14,0-0.24-0.11-0.24-0.25l0.02-1.56c0-0.13,0.11-0.24,0.24-0.24c0.14,0,0.24,0.11,0.24,0.25l-0.02,1.56
			C573.91,137.47,573.8,137.57,573.67,137.57z"/>
	</g>
	<g>
		<path class="st10" d="M553.65,189.54c-0.13,0-0.24-0.11-0.24-0.24c-0.08-5.17,1.56-12.52,1.58-12.59
			c0.03-0.13,0.15-0.21,0.29-0.18c0.13,0.03,0.21,0.16,0.18,0.29c-0.02,0.07-1.65,7.36-1.57,12.48
			C553.89,189.43,553.78,189.54,553.65,189.54C553.65,189.54,553.65,189.54,553.65,189.54z"/>
	</g>
	<g>
		<path d="M569.06,137.72c-0.14,0-0.25-0.12-0.24-0.25l0.05-1.56c0-0.13,0.13-0.23,0.25-0.23c0.13,0,0.24,0.12,0.23,0.25l-0.05,1.56
			C569.3,137.62,569.19,137.72,569.06,137.72z"/>
	</g>
	<g>
		<path d="M574.77,134.46c-0.08,0-0.16-0.04-0.2-0.11c-0.47-0.7-1.46-0.38-1.5-0.37c-0.13,0.04-0.26-0.03-0.31-0.15
			c-0.04-0.13,0.03-0.26,0.15-0.31c0.06-0.02,1.39-0.45,2.06,0.56c0.07,0.11,0.04,0.26-0.07,0.34
			C574.87,134.45,574.82,134.46,574.77,134.46z"/>
	</g>
	<g>
		<path class="st9" d="M568.91,176.94l-20.49,6.46c-1,0.31-2.06-0.24-2.37-1.23l-9.21-29.24c-0.31-1,0.24-2.06,1.23-2.37l20.49-6.46
			c1-0.31,2.06,0.24,2.37,1.23l9.21,29.24C570.45,175.57,569.9,176.63,568.91,176.94z"/>
	</g>
	<g>
		<path class="st6" d="M567.48,177.39l-20.49,6.46c-1,0.31-2.06-0.24-2.37-1.23l-9.21-29.24c-0.31-1,0.24-2.06,1.23-2.37l20.49-6.46
			c1-0.31,2.06,0.24,2.37,1.23l9.21,29.24C569.03,176.02,568.48,177.08,567.48,177.39z"/>
	</g>
	<g>
		<path class="st10" d="M544.11,153.71c-1.41,0-2.6-0.63-2.93-1.69l-0.68-2.14c-0.04-0.13,0.03-0.26,0.16-0.3
			c0.13-0.04,0.26,0.03,0.3,0.16l0.68,2.14c0.37,1.18,2.12,1.68,3.9,1.12l5.13-1.62c0.88-0.28,1.62-0.77,2.1-1.38
			c0.46-0.59,0.62-1.22,0.44-1.77l-0.68-2.14c-0.04-0.13,0.03-0.26,0.16-0.3c0.13-0.04,0.26,0.03,0.3,0.16l0.68,2.14
			c0.23,0.71,0.04,1.5-0.52,2.22c-0.54,0.69-1.37,1.24-2.34,1.55l-5.13,1.62C545.15,153.63,544.62,153.71,544.11,153.71z"/>
	</g>
	<g>
		<path d="M568.31,134.23c-0.06,0-0.12-0.02-0.16-0.06c-0.1-0.09-0.11-0.24-0.02-0.34c0.03-0.03,0.62-0.67,1.33-0.67
			c0.36,0,0.67,0.16,0.94,0.46c0.09,0.1,0.08,0.25-0.03,0.34c-0.1,0.09-0.25,0.08-0.34-0.02c-0.17-0.2-0.35-0.29-0.56-0.3
			c-0.51-0.02-0.97,0.51-0.98,0.52C568.44,134.2,568.37,134.23,568.31,134.23z"/>
	</g>
	<g>
		<g>
			<g>
				<g>
					<path class="st8" d="M536.18,168.04c0,0-4.96,0-3.71-2.42c1.25-2.42,9.97-4.52,11.22-1.98
						C544.94,166.16,536.18,168.04,536.18,168.04z"/>
				</g>
			</g>
		</g>
	</g>
	<g>
		<g>
			<g>
				<g>
					<path class="st8" d="M537.17,172.01c0,0-4.96,0-3.71-2.42c1.25-2.42,9.97-4.52,11.22-1.98
						C545.93,170.14,537.17,172.01,537.17,172.01z"/>
				</g>
			</g>
		</g>
	</g>
	<g>
		<g>
			<g>
				<g>
					<path class="st8" d="M540.39,175.07c-1.01,0.47-2.12,0.71-3.23,0.6c-0.99-0.1-1.89-0.49-1.53-1.64
						c0.72-2.3,8.02-5.44,9.48-3.42C546.21,172.11,542.4,174.14,540.39,175.07z"/>
				</g>
			</g>
		</g>
	</g>
	<g>
		<path d="M535.51,167.53c-0.11,0-0.22-0.08-0.24-0.2c-0.02-0.13,0.06-0.26,0.19-0.28l5.63-1.08c0.14-0.03,0.26,0.06,0.28,0.19
			c0.02,0.13-0.06,0.26-0.19,0.28l-5.63,1.08C535.54,167.52,535.52,167.53,535.51,167.53z"/>
	</g>
	<g>
		<path d="M536.94,171.89c-0.11,0-0.22-0.08-0.24-0.2c-0.02-0.13,0.06-0.26,0.19-0.28l5.63-1.08c0.14-0.03,0.26,0.06,0.28,0.19
			c0.02,0.13-0.06,0.26-0.19,0.28l-5.63,1.08C536.97,171.89,536.96,171.89,536.94,171.89z"/>
	</g>
	<g>
		<path d="M572.3,143.19c-0.1,0-0.21-0.01-0.32-0.02c-0.13-0.02-0.22-0.14-0.21-0.27c0.02-0.13,0.13-0.22,0.27-0.21
			c1.27,0.19,1.86-1.07,1.89-1.12c0.06-0.12,0.2-0.18,0.32-0.12c0.12,0.06,0.18,0.2,0.12,0.32
			C574.15,142.29,573.43,143.19,572.3,143.19z"/>
	</g>
	<g>
		<path class="st21" d="M583.81,149.51c0,0,32.81,11.99,30.71,34.63c-1.79,19.26-41.4,7.67-41.4,7.67l-0.25-18.04l17.22-0.14
			L583.81,149.51z"/>
	</g>
	<g>
		<path class="st10" d="M575.49,173.41c-0.12,0-0.22-0.08-0.24-0.2c-0.02-0.13,0.06-0.26,0.2-0.28c0.11-0.02,10.66-1.88,20.28-1.02
			c0.13,0.01,0.23,0.13,0.22,0.26c-0.01,0.13-0.12,0.23-0.26,0.22c-9.55-0.86-20.05,1-20.15,1.02
			C575.52,173.41,575.5,173.41,575.49,173.41z"/>
	</g>
	<g>
		<path class="st10" d="M586.75,172.01c-0.09,0-0.18-0.05-0.22-0.14c-0.04-0.09-0.02-0.21,0.05-0.28c0.14-0.14,3.46-3.31,5.69-3.31
			c0.02,0,0.04,0,0.06,0c0.5,0.01,0.92,0.19,1.24,0.52c0.37,0.39,0.35,0.73,0.26,0.95c-0.56,1.51-6.39,2.18-7.05,2.25
			C586.77,172.01,586.76,172.01,586.75,172.01z M592.27,168.77c-1.52,0-3.76,1.77-4.79,2.67c2.38-0.32,5.59-1.01,5.89-1.84
			c0.02-0.05,0.07-0.2-0.16-0.45c-0.23-0.24-0.52-0.36-0.9-0.37C592.3,168.77,592.28,168.77,592.27,168.77z"/>
	</g>
	<g>
		<path class="st10" d="M578.98,156c-1.72,0-4.98-2.59-5.76-3.23c-0.72,0.37-3.48,1.71-4.55,1.31c-0.18-0.07-0.3-0.2-0.35-0.39
			c-0.26-1.02,2.14-3.87,2.63-4.43c0.07-0.08,0.17-0.1,0.27-0.07c0.09,0.03,0.16,0.12,0.16,0.22l0.04,1.59
			c0.01,0.63,0.48,1.13,1.1,1.2c0.22,0.03,0.45,0.04,0.67,0.04c0.04-0.01,0.09-0.01,0.13,0c0.63,0,1.28-0.09,1.94-0.27
			c3.34-0.89,4.92-3,4.94-3.02c0.06-0.08,0.16-0.12,0.26-0.09c0.1,0.03,0.17,0.11,0.18,0.21c0.05,0.62,0.45,6.06-1.14,6.81
			C579.35,155.97,579.17,156,578.98,156z M573.92,152.71c1.8,1.42,4.48,3.17,5.37,2.75c0.88-0.42,1.02-3.53,0.9-5.75
			c-0.68,0.71-2.23,2.06-4.8,2.74C574.89,152.58,574.4,152.67,573.92,152.71z M570.91,150.07c-1.06,1.3-2.24,3-2.11,3.5
			c0.01,0.03,0.02,0.04,0.05,0.05c0.59,0.22,2.21-0.37,3.48-0.96c-0.79-0.15-1.38-0.84-1.4-1.65L570.91,150.07z"/>
	</g>
</g>
<g>
	<g>
		<path class="st10" d="M629.44,151.25c0,0-27.59,15.48-22.08,32.74c5.51,17.26,26.63,12.77,26.63,12.77L629.44,151.25z"/>
	</g>
	<g>
		<path class="st10" d="M640.1,147.38c0,0-6.71-4.59-16.9,12.13c-6.34,10.42-3.5,40.75-3.5,40.75s-1.51,8.31,3.69,7.43
			c5.2-0.88,5.2-0.88,5.2-0.88l20.7-49.65l3-8.88L640.1,147.38z"/>
	</g>
	<g>
		<path class="st10" d="M639.99,149c0,0-8.62,3.2-11.41,17.34c-3.46,17.59,0.6,35.94,0.6,35.94s6.83-0.46,17.63-2.79
			c10.79-2.33,12.29-2.61,12.29-2.61l-9.65-50.59L639.99,149z"/>
	</g>
	<g>
		<path d="M635.81,137.91c0,0-0.57-5.93-0.18-10.15c0.26-2.86,5.28-4.64,5.28-4.64s9.64,0.03,11.04,2.98
			c1.4,2.95,0.57,7.52,0.57,7.52L635.81,137.91z"/>
	</g>
	<g>
		<g>
			<g>
				<g>
					<path class="st22" d="M648.92,140.54l0.35,6.97c0,0-1.16,2.07-5.22,2.6c-3.03,0.4-4.07-1.11-4.07-1.11l0.43-6.14l7.28-1.99
						L648.92,140.54z"/>
				</g>
			</g>
		</g>
	</g>
	<g>
		<g>
			<g>
				<g>
					<path d="M648.89,140.11c-0.01,0.19-0.07,0.42-0.17,0.68c-1.38,3.56-6.8,5.29-8.55,5.53l0.24-3.46L648.89,140.11z"/>
				</g>
			</g>
		</g>
	</g>
	<g>
		<g>
			<g>
				<g>
					<path class="st3" d="M638.06,127.06c0,0-3.22,8.92-1.53,13.71c1.69,4.78,6.08,3.72,8.67,2.61s3.72-2.83,3.72-2.83
						s2.54,0.68,4.04-1.74c1.51-2.42,0.31-5-1.15-5.51c-1.46-0.51-3.07,0.62-3.07,0.62l1.15-2.61
						C649.9,131.3,643.5,118.86,638.06,127.06z"/>
				</g>
			</g>
		</g>
	</g>
	<g>
		<g>
			<g>
				<g>
					<path d="M648.74,133.91c0,0-3.67,1.03-6.57-2.92c-2.9-3.95-2.79-5.67-2.79-5.67l-2.26,4.48c0,0-0.8-2.93,0.24-4.91
						c1.04-1.98,2.31-1.68,2.31-1.68l8.37,1.43l2.66,6.42L648.74,133.91z"/>
				</g>
			</g>
		</g>
	</g>
	<g>
		<path d="M639.17,138.04c-0.65-0.11-1.05-0.39-1.24-0.84c-0.53-1.27,0.93-3.38,1.09-3.61c0.08-0.12,0.25-0.15,0.37-0.06
			c0.12,0.08,0.15,0.25,0.06,0.37c-0.41,0.58-1.39,2.26-1.04,3.11c0.12,0.28,0.38,0.45,0.79,0.52c0.14,0.02,0.24,0.16,0.22,0.3
			C639.41,137.95,639.29,138.04,639.17,138.04z"/>
	</g>
	<g>
		<path d="M649.39,137.94c-0.06,0-0.12-0.02-0.17-0.06c-0.11-0.09-0.13-0.26-0.04-0.37l2.17-2.67c0.09-0.11,0.26-0.13,0.37-0.04
			c0.11,0.09,0.13,0.26,0.04,0.37l-2.17,2.67C649.54,137.9,649.46,137.94,649.39,137.94z"/>
	</g>
	<g>
		<path d="M651.83,137.09c-0.02,0-1.67-0.13-1.67-0.13c-0.15-0.01-0.25-0.14-0.24-0.28c0.01-0.15,0.14-0.26,0.28-0.24l1.65,0.13
			c0.15,0.01,0.25,0.14,0.24,0.28C652.08,136.98,651.97,137.09,651.83,137.09z"/>
	</g>
	<g>
		<path d="M636.96,131.06c-0.12,0-0.23-0.08-0.26-0.2c-0.04-0.14,0.05-0.28,0.19-0.32l1.52-0.38c0.14-0.04,0.28,0.05,0.32,0.19
			c0.04,0.14-0.05,0.28-0.19,0.32l-1.52,0.38C637.01,131.06,636.98,131.06,636.96,131.06z"/>
	</g>
	<g>
		<path d="M643.44,131.59c-0.03,0-0.07-0.01-0.1-0.02l-2.62-1.09c-0.13-0.06-0.2-0.21-0.14-0.34c0.06-0.14,0.21-0.2,0.34-0.14
			l2.62,1.09c0.13,0.06,0.2,0.21,0.14,0.34C643.64,131.53,643.54,131.59,643.44,131.59z"/>
	</g>
	<g>
		<path d="M637.23,134.62c-0.02,0-0.04,0-0.06-0.01c-0.14-0.03-0.23-0.17-0.2-0.32l0.33-1.46l-0.43-0.45
			c-0.1-0.11-0.1-0.27,0.01-0.37c0.1-0.1,0.27-0.1,0.37,0.01l0.52,0.55c0.06,0.06,0.08,0.15,0.07,0.24l-0.36,1.6
			C637.46,134.54,637.35,134.62,637.23,134.62z"/>
	</g>
	<g>
		<path d="M641.99,134.7c-0.02,0-0.04,0-0.06-0.01c-0.14-0.03-0.23-0.17-0.2-0.32l0.33-1.46l-0.62-0.62c-0.1-0.1-0.1-0.27,0-0.37
			c0.1-0.1,0.27-0.1,0.37,0l0.72,0.72c0.06,0.06,0.09,0.16,0.07,0.24l-0.36,1.6C642.22,134.62,642.11,134.7,641.99,134.7z"/>
	</g>
	<g>
		<path class="st10" d="M649.44,146.3c0,0,10.88-0.18,22.7,13.57c11.82,13.75,7.29,25.99-6.51,32.26s-28.24,7.82-28.24,7.82
			l-2.89-19.77l12.33-4.07C646.82,176.1,644.78,153.72,649.44,146.3z"/>
	</g>
	<g>
		<path class="st3" d="M628.13,181.24c0,0-7.94,0-6.53,2.19c1.41,2.19,7.85,0.84,7.85,0.84l3.9-0.95L628.13,181.24z"/>
	</g>
	<g>
		<path class="st3" d="M636.47,183.19c0,0-3.7-1.57-5.46-1.86c-1.67-0.28-2.89-0.09-2.89-0.09l-0.32,2.58c0,0-5.54,1.74-9.34,4.09
			c-3.8,2.35-2.92,4.09-2.92,4.09s-2.39,1.86-1.2,2.85c1.18,0.99,5.25-0.47,5.25-0.47s-5.07,2.46-2.79,3.44
			c2.28,0.98,7.03,0.19,7.03,0.19s10.58,0.88,13.7-3.05C640.64,191.03,636.47,183.19,636.47,183.19z"/>
	</g>
	<g>
		<path d="M615.76,192c-0.12,0-0.24-0.07-0.29-0.2c-0.06-0.16,0.02-0.34,0.17-0.4l7.88-3.06c0.16-0.06,0.34,0.02,0.4,0.17
			c0.06,0.16-0.02,0.34-0.17,0.4l-7.88,3.06C615.84,191.99,615.8,192,615.76,192z"/>
	</g>
	<g>
		<path d="M619.06,194.86c-0.12,0-0.24-0.07-0.29-0.19c-0.06-0.16,0.02-0.34,0.17-0.4l4.94-1.94c0.16-0.06,0.34,0.02,0.4,0.17
			c0.06,0.16-0.02,0.34-0.17,0.4l-4.94,1.94C619.14,194.85,619.1,194.86,619.06,194.86z"/>
	</g>
	<g>
		<path class="st10" d="M656.75,170.75L634.29,178l1.98,22.05c0,0,26.62-3.21,35.89-11.88c9.27-8.67-5.27-18.62-5.27-18.62
			L656.75,170.75z"/>
	</g>
	<g>
		<path class="st6" d="M657.06,173.08c-1.52,0-3.13-0.21-4.6-0.73c-0.1-0.03-0.16-0.12-0.17-0.22c-0.01-0.1,0.03-0.2,0.12-0.25
			c0.22-0.14,5.37-3.41,9.61-2.15c0.82,0.24,1.27,0.57,1.36,0.99c0.05,0.21,0.02,0.54-0.39,0.91
			C662.07,172.44,659.7,173.08,657.06,173.08z M653.19,172.03c3.93,1.16,8.35,0.17,9.44-0.8c0.1-0.09,0.26-0.26,0.23-0.4
			c-0.02-0.08-0.14-0.34-1-0.6C658.59,169.27,654.58,171.26,653.19,172.03z"/>
	</g>
	<g>
		<path class="st6" d="M643.33,150.57c-1.29,0-2.57-0.35-3.53-1.39c-0.1-0.11-0.09-0.27,0.01-0.37c0.1-0.1,0.27-0.09,0.37,0.01
			c2.58,2.78,8.08-0.12,8.14-0.15c0.13-0.07,0.29-0.02,0.36,0.11c0.07,0.13,0.02,0.29-0.11,0.36
			C648.41,149.22,645.86,150.57,643.33,150.57z"/>
	</g>
	<g>
		<path class="st9" d="M635.87,126.88c0,0,4.35-4.86,10.02,1.63c5.67,6.49,2.55,10.91,2.55,10.91s-2.98,6.59-9.35,4.46
			c-4.31-1.44-3.47-16.12-3.47-16.12s-3.63,11.98-0.1,19.81c3.54,7.83,11.77,6.78,15.62,5.22c3.85-1.56,5.91-4.79,5.91-4.79
			l-2.23-2.28c0,0,2.77-16.06-2.36-21.21C647.21,119.22,637.71,119.96,635.87,126.88z"/>
	</g>
	<g>
		<path d="M640.47,140.42c-0.2,0-0.41-0.03-0.64-0.1c-0.14-0.04-0.22-0.19-0.17-0.33c0.04-0.14,0.2-0.22,0.33-0.17
			c1.12,0.35,1.69-0.57,1.71-0.61c0.08-0.12,0.24-0.16,0.36-0.09c0.13,0.08,0.16,0.24,0.09,0.36
			C641.93,139.85,641.33,140.42,640.47,140.42z"/>
	</g>
	<g>
		<path class="st9" d="M635.68,145.5l-3.43,3.34c0,0,1.84,4.36,9.1,4.36C648.61,153.2,635.68,145.5,635.68,145.5z"/>
	</g>
	<g>
		<path class="st12" d="M640.76,152.91c-0.03,0-0.06-0.01-0.09-0.02c-0.16-0.06-3.92-1.52-5.38-5.22c-0.05-0.13,0.01-0.29,0.15-0.34
			c0.14-0.05,0.29,0.01,0.34,0.15c1.38,3.49,5.04,4.91,5.08,4.92c0.14,0.05,0.2,0.2,0.15,0.34
			C640.97,152.84,640.87,152.91,640.76,152.91z"/>
	</g>
	<g>
		<path class="st12" d="M641.55,150.88c-1.38,0-2.84-0.13-4.39-0.44c-0.14-0.03-0.23-0.17-0.21-0.31c0.03-0.14,0.16-0.24,0.31-0.21
			c10.67,2.13,17.32-4.32,17.39-4.39c0.1-0.1,0.27-0.1,0.37,0c0.1,0.1,0.1,0.27,0,0.37C654.96,145.96,649.91,150.88,641.55,150.88z"
			/>
	</g>
	<g>
		<path class="st12" d="M638.99,150.59c-0.6,0-1.21-0.05-1.82-0.15c-0.14-0.02-0.24-0.16-0.21-0.3c0.03-0.14,0.16-0.24,0.3-0.21
			c9,1.56,17.06-9.66,17.14-9.77c0.08-0.12,0.25-0.14,0.37-0.06c0.12,0.08,0.15,0.25,0.06,0.37
			C654.75,140.56,647.54,150.59,638.99,150.59z"/>
	</g>
	<g>
		<path class="st6" d="M628.16,179.26c-0.09,0-0.19-0.05-0.23-0.14c-5.26-9.93,2.17-19.66,2.24-19.76c0.09-0.11,0.25-0.13,0.37-0.05
			c0.11,0.09,0.14,0.25,0.05,0.37c-0.07,0.09-7.29,9.57-2.19,19.19c0.07,0.13,0.02,0.29-0.11,0.36
			C628.24,179.25,628.2,179.26,628.16,179.26z"/>
	</g>
	<g>
		<path class="st6" d="M643.14,176.49c-0.1,0-0.2-0.06-0.24-0.16c-0.06-0.13,0-0.29,0.14-0.35l9.41-4.12c0.13-0.06,0.29,0,0.35,0.14
			c0.06,0.13,0,0.29-0.14,0.35l-9.41,4.12C643.21,176.48,643.18,176.49,643.14,176.49z"/>
	</g>
	<g>
		<path class="st3" d="M615.27,177.21c0,0,0.39-0.07,2-0.27c1.53-0.18,6.54,1.36,6.54,1.36s4.29,1.66,7.65,3.96
			c3.36,2.3,2.48,3.85,2.48,3.85s2.09,1.79,0.98,2.64c-1.12,0.85-4.76-0.65-4.76-0.65s4.51,2.45,2.4,3.25
			c-2.11,0.8-7.81-2.58-7.81-2.58s-10.06,2.14-12.73-1.57C609.35,183.5,615.27,177.21,615.27,177.21z"/>
	</g>
	<g>
		<path d="M633.94,186.36c-0.06,0-0.12-0.02-0.17-0.07c-0.03-0.03-2.76-2.54-6.48-4.57c-0.12-0.07-0.17-0.22-0.1-0.34
			c0.07-0.12,0.22-0.17,0.34-0.1c3.78,2.07,6.55,4.62,6.58,4.64c0.1,0.09,0.11,0.25,0.01,0.35
			C634.07,186.33,634,186.36,633.94,186.36z"/>
	</g>
	<g>
		<path d="M630.64,188.33c-0.07,0-0.13-0.03-0.18-0.08c-0.02-0.02-2.25-2.35-4.56-3.09c-0.13-0.04-0.21-0.18-0.16-0.31
			c0.04-0.13,0.18-0.21,0.31-0.16c2.43,0.78,4.67,3.12,4.77,3.22c0.1,0.1,0.09,0.26-0.01,0.35
			C630.76,188.31,630.7,188.33,630.64,188.33z"/>
	</g>
</g>
<g>
	<g>
		<path class="st18" d="M724.07,297.76h-362v-99.08c0-6.42,5.2-11.62,11.62-11.62h350.38V297.76z"/>
	</g>
	<g>
		<path class="st23" d="M711.21,297.76h-363v-99.08c0-6.42,5.2-11.62,11.62-11.62h351.38V297.76z"/>
	</g>
	<g>
		<path class="st6" d="M710.68,214.15c0,0-362.47-1.16-362.47-1.16c-0.22,0-0.4-0.18-0.4-0.4c0-0.22,0.18-0.4,0.4-0.4
			c0,0,362.47,1.16,362.47,1.16c0.22,0,0.4,0.18,0.4,0.4C711.08,213.97,710.91,214.15,710.68,214.15z"/>
	</g>
</g>
<g>
	<g>
		<path d="M619.61,177.39c0,0,4.08-1.14,5.51,2.12c0.87,1.97,0,4.25,0,4.25s3.56-0.86,5.35,2.25c1.48,2.57,0,5.28,0,5.28
			s4.83,1.92,5.6,5.89c0.78,3.97-1.17,6.23-1.17,6.23l-23.42-4.2l0.34-17.86L619.61,177.39z"/>
	</g>
	<g>
		<path class="st12" d="M595.74,237.24c0,0-11.35,1.88-15.02-11.39c-3.67-13.27,14.46-30.15,14.46-30.15L595.74,237.24z"/>
	</g>
	<g>
		<path class="st24" d="M619.42,238.86c0,0-13.33,2.97-20.01-0.28c-6.68-3.25-2.91-21.96-2.91-21.96s3.63-25.62,8.83-26.16
			c5.2-0.55,9.8,0.14,9.8,0.14l6.42,21.77L619.42,238.86z"/>
	</g>
	<g>
		<path class="st12" d="M607.49,189.77c0,0-0.87,0.25-2.17,0.7l8.95,0.56c0,0,1.21,12.52,1.64,26.89c0.31,10.18,0,19.36-0.22,23.84
			l12.64-0.31c0,0,6.03-41.27,1.26-45.69s-16.58-5.91-16.58-5.91L607.49,189.77z"/>
	</g>
	<g>
		<path class="st12" d="M593.76,242.29l7.1-0.17c-0.4-5.46-1.09-18.46,0.15-31.42c1.59-16.49,4.14-20.01,4.3-20.22
			c-3.41,1.16-9.75,3.65-10.91,6.34C592.79,200.53,593.76,242.29,593.76,242.29z"/>
	</g>
	<g>
		<g>
			<path class="st8" d="M616.22,231.7c0,0-12.63-2.04-15.72-0.66c-3.09,1.38-0.17,11.66,0.85,13.51c1.02,1.85,15.09-1.56,15.09-1.56
				l2.27-5.43L616.22,231.7z"/>
		</g>
	</g>
	<g>
		<g>
			<path class="st8" d="M600.5,231.04c0,0-7.4,5.47-7.56,8.69c-0.16,3.23,8.92-3.87,8.92-3.87L600.5,231.04z"/>
		</g>
	</g>
	<g>
		<g>
			<path class="st8" d="M605.98,243.9c0,0,6.49,1.21,4.51,3.04c-1.98,1.83-8.46-0.78-9.14-2.39s3.92-3.84,3.92-3.84L605.98,243.9z"
				/>
		</g>
	</g>
	<g>
		<path d="M606.63,244.86c-0.14,0-0.26-0.11-0.26-0.25c-0.01-0.15,0.11-0.27,0.25-0.27l1.53-0.06l-0.79-1.13
			c-0.08-0.12-0.05-0.28,0.07-0.37c0.12-0.08,0.28-0.05,0.37,0.07l1.07,1.53c0.05,0.08,0.06,0.18,0.02,0.27
			c-0.04,0.09-0.13,0.14-0.22,0.15l-2.01,0.08C606.64,244.86,606.64,244.86,606.63,244.86z"/>
	</g>
	<g>
		<path d="M599.21,237.52c-0.06,0-0.12-0.02-0.17-0.06c-0.11-0.09-0.13-0.26-0.03-0.37c0.21-0.26,2.1-2.51,2.88-2.83
			c0.14-0.05,0.29,0.01,0.34,0.15c0.05,0.13-0.01,0.29-0.15,0.34c-0.5,0.2-1.9,1.75-2.67,2.67
			C599.36,237.49,599.28,237.52,599.21,237.52z"/>
	</g>
	<g>
		<path d="M600.09,241.17c-0.07,0-0.14-0.03-0.19-0.08c-0.1-0.1-0.1-0.27,0-0.37l3.58-3.52c0.1-0.1,0.27-0.1,0.37,0
			c0.1,0.1,0.1,0.27,0,0.37l-3.58,3.52C600.22,241.15,600.15,241.17,600.09,241.17z"/>
	</g>
	<g>
		<g>
			<g>
				<g>
					<path class="st8" d="M614.52,184.77l-0.27,6.95c0,0-1.33,1.95-5.41,2.12c-3.04,0.13-3.94-1.47-3.94-1.47l0.97-6.05l7.4-1.33
						L614.52,184.77z"/>
				</g>
			</g>
		</g>
	</g>
	<g>
		<g>
			<g>
				<g>
					<path d="M614.53,184.34c-0.03,0.19-0.11,0.41-0.23,0.66c-1.69,3.41-7.22,4.64-8.98,4.73l0.55-3.42L614.53,184.34z"/>
				</g>
			</g>
		</g>
	</g>
	<g>
		<g>
			<g>
				<g>
					<path class="st8" d="M604.94,170.42c0,0-3.99,8.57-2.74,13.47c1.25,4.9,5.7,4.24,8.37,3.36c2.67-0.88,3.94-2.48,3.94-2.48
						s2.46,0.9,4.17-1.37c1.71-2.26,0.75-4.93-0.65-5.57c-1.4-0.64-3.11,0.34-3.11,0.34l1.38-2.49
						C616.32,175.68,611.07,162.76,604.94,170.42z"/>
				</g>
			</g>
		</g>
	</g>
	<g>
		<path d="M604.9,181c-0.05,0-0.11-0.02-0.15-0.05c-0.62-0.45-0.95-0.99-0.99-1.63c-0.08-1.34,1.22-2.56,1.28-2.61
			c0.1-0.1,0.27-0.09,0.37,0.01c0.1,0.11,0.09,0.27-0.01,0.37c-0.01,0.01-1.18,1.1-1.11,2.2c0.03,0.47,0.29,0.88,0.77,1.23
			c0.12,0.08,0.14,0.25,0.06,0.37C605.07,180.96,604.98,181,604.9,181z"/>
	</g>
	<g>
		<path d="M615.24,182.22c-0.07,0-0.13-0.02-0.18-0.07c-0.1-0.1-0.11-0.27,0-0.37l2.39-2.45c0.1-0.1,0.27-0.11,0.37,0
			c0.1,0.1,0.11,0.27,0,0.37l-2.39,2.45C615.38,182.2,615.31,182.22,615.24,182.22z"/>
	</g>
	<g>
		<path d="M617.74,181.6c-0.04,0-1.67-0.28-1.67-0.28c-0.14-0.02-0.24-0.16-0.21-0.3c0.02-0.14,0.16-0.24,0.3-0.22l1.62,0.27
			c0.14,0.02,0.24,0.16,0.21,0.3C617.98,181.51,617.87,181.6,617.74,181.6z"/>
	</g>
	<g>
		<path d="M603.52,174.3c-0.13,0-0.24-0.09-0.26-0.22c-0.02-0.14,0.08-0.28,0.22-0.3l1.54-0.25c0.14-0.02,0.28,0.08,0.3,0.22
			c0.02,0.14-0.08,0.28-0.22,0.3l-1.54,0.25C603.55,174.3,603.53,174.3,603.52,174.3z"/>
	</g>
	<g>
		<path d="M609.9,175.4c-0.04,0-0.08-0.01-0.12-0.03l-2.5-1.31c-0.13-0.07-0.18-0.23-0.11-0.35c0.07-0.13,0.23-0.18,0.35-0.11
			l2.5,1.31c0.13,0.07,0.18,0.23,0.11,0.35C610.09,175.35,609.99,175.4,609.9,175.4z"/>
	</g>
	<g>
		<path d="M603.47,177.85c-0.03,0-0.05,0-0.08-0.01c-0.14-0.04-0.21-0.19-0.17-0.33l0.46-1.42l-0.38-0.48
			c-0.09-0.11-0.07-0.28,0.04-0.37c0.11-0.09,0.28-0.07,0.37,0.04l0.47,0.59c0.05,0.07,0.07,0.16,0.04,0.24l-0.5,1.56
			C603.68,177.78,603.58,177.85,603.47,177.85z"/>
	</g>
	<g>
		<path d="M607.84,178.34c-0.03,0-0.05,0-0.08-0.01c-0.14-0.04-0.21-0.19-0.17-0.33l0.46-1.42l-0.56-0.67
			c-0.09-0.11-0.08-0.28,0.03-0.37c0.11-0.09,0.28-0.08,0.37,0.03l0.65,0.78c0.06,0.07,0.08,0.16,0.05,0.25l-0.5,1.56
			C608.05,178.27,607.95,178.34,607.84,178.34z"/>
	</g>
	<g>
		<path d="M606.34,183.74c-0.21,0-0.43-0.05-0.66-0.18c-0.13-0.07-0.17-0.23-0.1-0.36c0.07-0.13,0.23-0.17,0.36-0.1
			c0.8,0.45,1.49-0.62,1.52-0.67c0.08-0.12,0.24-0.16,0.36-0.08c0.12,0.08,0.16,0.24,0.08,0.36
			C607.65,183.13,607.06,183.74,606.34,183.74z"/>
	</g>
	<g>
		<path class="st12" d="M627.3,194.11c0,0,17.33,10.67,17.17,30.49c-0.16,19.82-28.35,20.02-28.35,20.02l-4.64-18.58l14.39-7.46
			L627.3,194.11z"/>
	</g>
	<g>
		<path class="st25" d="M617.05,223.18c-0.09,0-0.17-0.04-0.22-0.12c-0.08-0.12-0.04-0.29,0.08-0.36c0.38-0.24,9.23-5.81,12.65-6.7
			c0.14-0.03,0.28,0.05,0.32,0.19c0.04,0.14-0.05,0.28-0.19,0.32c-3.34,0.86-12.41,6.57-12.5,6.63
			C617.14,223.17,617.09,223.18,617.05,223.18z"/>
	</g>
	<g>
		<path class="st25" d="M625.2,218.32c-0.04,0-0.08-0.01-0.12-0.03c-0.09-0.05-0.15-0.15-0.14-0.25c0.03-0.51,0.37-5.04,1.89-5.84
			c0.26-0.13,0.67-0.23,1.19,0.08c0.43,0.25,0.67,0.61,0.71,1.07c0.16,1.86-3.21,4.78-3.36,4.91
			C625.32,218.3,625.26,218.32,625.2,218.32z M627.33,212.59c-0.11,0-0.2,0.03-0.26,0.07c-0.92,0.49-1.39,3.17-1.55,4.75
			c1.08-1.02,2.78-2.89,2.68-4.02c-0.02-0.29-0.17-0.5-0.45-0.67C627.58,212.63,627.45,212.59,627.33,212.59z"/>
	</g>
	<g>
		<path class="st8" d="M593.56,200.93c0,0,4.97,6.47,4.75,9.03s-2.07,1.27-2.07,1.27s1.12,2.87-0.05,3.48
			c-1.17,0.6-2.04-1.28-2.04-1.28s0.01,2.48-1.39,2.53c-1.4,0.05-7.11-6.66-7.22-8.64c-0.11-1.98,2.38-1.47,2.38-1.47
			s-0.61-3.09,0.52-3.75s2.79,0.97,2.79,0.97S591.05,198.91,593.56,200.93z"/>
	</g>
	<g>
		<path class="st8" d="M592.72,213.98c0,0,1.21,6.62-2.53,6.59c-7.81-0.07-4.66-13.24-4.66-13.24L592.72,213.98z"/>
	</g>
	<g>
		<path class="st25" d="M591.58,234.02c-0.06,0-0.12-0.02-0.17-0.06c-0.11-0.09-0.13-0.26-0.04-0.37
			c2.12-2.57,1.84-12.87,1.84-12.97c0-0.15,0.11-0.27,0.25-0.27c0.17,0,0.27,0.11,0.27,0.25c0.01,0.43,0.29,10.6-1.96,13.32
			C591.73,233.99,591.65,234.02,591.58,234.02z"/>
	</g>
	<g>
		<path d="M596.24,211.5c-0.09,0-0.18-0.05-0.23-0.13l-4.25-7.45c-0.07-0.13-0.03-0.29,0.1-0.36c0.13-0.07,0.29-0.03,0.36,0.1
			l4.25,7.45c0.07,0.13,0.03,0.29-0.1,0.36C596.33,211.49,596.29,211.5,596.24,211.5z"/>
	</g>
	<g>
		<path d="M593.44,213.7c-0.09,0-0.17-0.04-0.22-0.13l-4.11-6.73c-0.08-0.12-0.04-0.29,0.09-0.36c0.12-0.07,0.28-0.04,0.36,0.09
			l4.11,6.73c0.08,0.12,0.04,0.29-0.09,0.36C593.54,213.69,593.49,213.7,593.44,213.7z"/>
	</g>
	<g>
		<path class="st25" d="M608.22,194.13c-2.58,0-3.51-1.55-3.55-1.63c-0.07-0.13-0.03-0.29,0.1-0.36c0.12-0.07,0.29-0.03,0.36,0.1
			c0.04,0.06,0.96,1.58,3.68,1.33c2.58-0.24,5.26-2.06,5.29-2.08c0.12-0.08,0.28-0.05,0.37,0.07c0.08,0.12,0.05,0.28-0.07,0.37
			c-0.11,0.08-2.82,1.92-5.53,2.17C608.64,194.12,608.43,194.13,608.22,194.13z"/>
	</g>
	<g>
		<path d="M614.94,178.17c0,0-1.42-0.3-2.79-2.05c-1.37-1.75-1.08-4.71-1.08-4.71s-1.55,0.62-3.38,0.62c-1.82,0-3.02-0.99-3.02-0.99
			s-1.72-1.27-1.39-3.37c0.33-2.1,2.62-1.63,2.62-1.63s1.96-1.48,5.17-1.4c3.21,0.08,4.18,1.87,4.18,1.87s2.86,0.1,3.95,1.49
			c1.08,1.39,1.08,3.41,1.08,3.41s1.29,0.39,1.7,3.08c0.41,2.69-2.57,5.03-2.57,5.03S617.93,177.15,614.94,178.17z"/>
	</g>
	<g>
		<path d="M618.91,169.3c0,0,4.22-7.86,7.9-3.66c4.15,4.75-4.28,9.89-6.85,7.24C617.39,170.23,618.91,169.3,618.91,169.3z"/>
	</g>
</g>
<g>
	<g>
		<g>
			<path d="M529.48,181.28c0,0-7.23,5.45-7.77,12.08c-0.81,10.02,10.59,5.64,11.84-0.75C534.81,186.21,529.48,181.28,529.48,181.28z
				"/>
		</g>
		<g>
			<polygon class="st26" points="559.18,233.51 562.97,245.37 557.29,246.04 555.02,236.1 			"/>
		</g>
		<g>
			<path class="st27" d="M516.23,232.65v5.03c0,0,12.76,2.92,23.23,2.17c10.47-0.75,14.39-2.59,14.39-2.59l4.45-25.56l-13.38-18.83
				L533.98,192l-26.68,19.34l6.52,17.67L516.23,232.65z"/>
		</g>
		<g>
			<path d="M528.83,180.6c0,0-4.83-15.22,4.06-15.24c6.12-0.02,14.2,4.3,15.46,7.56c1.25,3.26-0.7,8.37-0.7,8.37L528.83,180.6z"/>
		</g>
		<g>
			<polygon class="st21" points="524.71,225.99 529.66,202.94 546.88,202.94 543,227.35 			"/>
		</g>
		<g>
			<path class="st12" d="M542.99,251.56c-2.44,1.52-5.33,0-5.33,0s-7.39-10.93-11.1-25.27c-0.06-0.23-0.11-0.45-0.17-0.68
				c-0.73-2.89-1.29-5.92-1.61-9.01c-0.03-0.2-0.05-0.4-0.07-0.6c-0.34-3.65-0.54-6.68-0.63-9.21h2.8l0.83-3.84h2.01
				c0.08,1.2,0.17,2.49,0.31,3.84c0.25,2.5,0.61,5.23,1.13,8.08c0.71,3.87,1.72,7.96,3.16,11.99c0.15,0.44,0.31,0.87,0.47,1.31
				c6.35,16.71,9.46,18.71,9.46,18.71S545.66,249.88,542.99,251.56z"/>
		</g>
		<g>
			<polygon class="st6" points="544.92,202.94 541.04,227.36 534.31,226.85 526.55,226.28 522.76,226 523.01,224.85 524.78,216.59 
				526.88,206.78 527.71,202.94 			"/>
		</g>
		<g>
			<polygon class="st28" points="516.07,222.82 520.42,206.78 535.14,206.78 530.98,226.12 			"/>
		</g>
		<g>
			<polygon class="st9" points="532.89,206.78 531.15,214.86 528.73,226.12 526.39,225.6 523.01,224.85 513.82,222.82 
				518.16,206.78 			"/>
		</g>
		<g>
			<path class="st29" d="M516.66,220.48c0,0,5.52-0.57,6.69-0.57c1.17,0,2.74,2.74,2.74,2.74l3.5,1.01l-4.01,11.27
				c0,0-8.33,1.08-11.78-2.92C512.53,230.5,516.66,220.48,516.66,220.48z"/>
		</g>
		<g>
			<path class="st27" d="M533.98,192.5c0,0-10.47,0.25-21.08,9.1c-10.61,8.85-15.2,17.62-13.03,25.31
				c2.17,7.68,15.79,8.02,15.79,8.02l4.01-15.87l-10.48-6.85L533.98,192.5z"/>
		</g>
		<g>
			<path class="st11" d="M539.63,223.15c0,0-3.26-1.74-4.84-2.15c-1.5-0.39-2.64-0.32-2.64-0.32l-0.5,2.34c0,0-5.21,1.14-8.89,2.98
				c-3.68,1.84-3.01,3.51-3.01,3.51s-2.34,1.5-1.34,2.51c1,1,4.84,0,4.84,0s-4.84,1.84-2.84,2.92c2,1.09,6.42,0.75,6.42,0.75
				s9.62,1.67,12.79-1.67C542.81,230.67,539.63,223.15,539.63,223.15z"/>
		</g>
		<g>
			<g>
				<g>
					<g>
						<path class="st11" d="M542.25,185.63l-0.19,7.46c0,0-1.4,2.11-5.77,2.36c-3.26,0.18-4.25-1.51-4.25-1.51l0.95-6.51l7.92-1.54
							L542.25,185.63z"/>
					</g>
				</g>
			</g>
		</g>
		<g>
			<path class="st27" d="M541.64,192.5c0,0,18.13,0.67,27.23,15.29c9.1,14.62,1.92,27.82-12.36,30.49
				c-14.28,2.67-21.72-1.25-21.72-1.25l3.4-16.62l7.33-1.09l7.16-8.73L541.64,192.5z"/>
		</g>
		<g>
			<path class="st12" d="M529.72,202.94h-2.01l-0.83,3.84h-2.8c-0.41-10.69,1.01-12.28,1.01-12.28l4.51-1.35
				C529.61,193.16,529.36,197.08,529.72,202.94z"/>
		</g>
		<g>
			<g>
				<g>
					<g>
						<path d="M542.25,185.18c-0.02,0.2-0.11,0.44-0.23,0.71c-1.76,3.68-7.68,5.09-9.56,5.21l0.54-3.67L542.25,185.18z"/>
					</g>
				</g>
			</g>
		</g>
		<g>
			<g>
				<g>
					<g>
						<path class="st11" d="M531.76,170.38c0,0-4.15,9.26-2.74,14.49c1.41,5.24,6.18,4.46,9.04,3.48c2.86-0.98,4.19-2.72,4.19-2.72
							s2.65,0.93,4.45-1.53c1.8-2.46,0.73-5.31-0.78-5.97c-1.51-0.67-3.33,0.41-3.33,0.41l1.44-2.69
							C544.04,175.86,538.22,162.08,531.76,170.38z"/>
					</g>
				</g>
			</g>
		</g>
		<g>
			<g>
				<g>
					<g>
						<path d="M542.6,178.55c0,0-4,0.81-6.77-3.64c-2.78-4.45-2.52-6.28-2.52-6.28l-2.77,4.59c0,0-0.62-3.18,0.66-5.21
							s2.6-1.61,2.6-1.61l8.81,2.2l2.32,7.06L542.6,178.55z"/>
					</g>
				</g>
			</g>
		</g>
		<g>
			<path d="M532.08,182.18c-0.12,0-0.23-0.08-0.27-0.2c-0.61-1.98,0.8-3.99,0.86-4.08c0.09-0.13,0.27-0.16,0.39-0.07
				c0.13,0.09,0.16,0.27,0.07,0.39c-0.01,0.02-1.3,1.87-0.78,3.59c0.05,0.15-0.04,0.31-0.19,0.35
				C532.13,182.18,532.1,182.18,532.08,182.18z"/>
		</g>
		<g>
			<path d="M542.98,182.89c-0.07,0-0.14-0.03-0.19-0.08c-0.11-0.11-0.12-0.29-0.01-0.4l2.53-2.67c0.11-0.11,0.29-0.12,0.4-0.01
				c0.11,0.11,0.12,0.29,0.01,0.4l-2.53,2.67C543.13,182.87,543.06,182.89,542.98,182.89z"/>
		</g>
		<g>
			<path d="M545.66,182.19c-0.04,0-1.79-0.27-1.79-0.27c-0.15-0.02-0.26-0.17-0.24-0.32c0.02-0.15,0.16-0.26,0.32-0.24l1.75,0.27
				c0.15,0.02,0.26,0.17,0.24,0.32C545.91,182.09,545.79,182.19,545.66,182.19z"/>
		</g>
		<g>
			<path d="M530.29,174.57c-0.13,0-0.25-0.1-0.28-0.23c-0.03-0.15,0.08-0.3,0.23-0.33l1.65-0.29c0.15-0.03,0.3,0.08,0.33,0.23
				c0.03,0.15-0.08,0.3-0.23,0.33l-1.65,0.29C530.32,174.57,530.3,174.57,530.29,174.57z"/>
		</g>
		<g>
			<path d="M537.15,175.65c-0.04,0-0.09-0.01-0.13-0.03l-2.71-1.37c-0.14-0.07-0.2-0.24-0.13-0.38c0.07-0.14,0.25-0.19,0.38-0.12
				l2.71,1.37c0.14,0.07,0.2,0.24,0.13,0.38C537.35,175.59,537.25,175.65,537.15,175.65z"/>
		</g>
		<g>
			<path d="M547.65,181.28c0,0,8.19,3.74,7.38,11.88c-0.81,8.14-7.37,7.88-11.11,4.59c-3.89-3.43-1.66-12.11-1.66-12.11
				S547.21,186.46,547.65,181.28z"/>
		</g>
		<g>
			<path d="M530.29,178.38c-0.03,0-0.06,0-0.08-0.01c-0.15-0.05-0.23-0.2-0.19-0.35l0.47-1.53l-0.42-0.51
				c-0.1-0.12-0.08-0.3,0.04-0.4c0.12-0.1,0.3-0.08,0.4,0.04l0.52,0.63c0.06,0.07,0.08,0.17,0.05,0.26l-0.52,1.68
				C530.52,178.31,530.41,178.38,530.29,178.38z"/>
		</g>
		<g>
			<path d="M534.98,178.83c-0.03,0-0.06,0-0.08-0.01c-0.15-0.05-0.23-0.2-0.19-0.35l0.47-1.53l-0.61-0.71
				c-0.1-0.12-0.09-0.3,0.03-0.4c0.12-0.1,0.3-0.09,0.4,0.03l0.71,0.83c0.06,0.07,0.08,0.17,0.06,0.27l-0.52,1.68
				C535.22,178.76,535.1,178.83,534.98,178.83z"/>
		</g>
		<g>
			<path d="M526.1,222.93c-0.02,0-0.04,0-0.05,0l-5.26-1c-0.15-0.03-0.25-0.18-0.22-0.33c0.03-0.15,0.18-0.25,0.33-0.22l5.26,1
				c0.15,0.03,0.25,0.18,0.22,0.33C526.35,222.84,526.23,222.93,526.1,222.93z"/>
		</g>
		<g>
			<path d="M531.65,223.3c-0.12,0-0.23-0.08-0.27-0.2c-0.04-0.15,0.04-0.31,0.19-0.35l2.93-0.87c0.15-0.04,0.31,0.04,0.35,0.19
				c0.04,0.15-0.04,0.31-0.19,0.35l-2.93,0.87C531.7,223.3,531.67,223.3,531.65,223.3z"/>
		</g>
		<g>
			<path d="M519.97,229.52c-0.12,0-0.24-0.08-0.27-0.2c-0.04-0.15,0.04-0.31,0.19-0.35l7.46-2.16c0.15-0.05,0.31,0.04,0.35,0.19
				c0.04,0.15-0.04,0.31-0.19,0.35l-7.46,2.16C520.03,229.51,520,229.52,519.97,229.52z"/>
		</g>
		<g>
			<path d="M522.76,232.41c-0.12,0-0.23-0.08-0.27-0.2c-0.04-0.15,0.04-0.31,0.19-0.35l4.68-1.37c0.15-0.04,0.31,0.04,0.35,0.19
				c0.04,0.15-0.04,0.31-0.19,0.35l-4.68,1.37C522.81,232.4,522.78,232.41,522.76,232.41z"/>
		</g>
		<g>
			<path class="st6" d="M536.36,195.7c-2.82,0-4.48-1.53-4.51-1.56c-0.11-0.11-0.12-0.28-0.01-0.4c0.11-0.11,0.29-0.12,0.4-0.01
				c0.13,0.13,3.35,3.05,8.55,0.13c0.13-0.08,0.31-0.03,0.38,0.11c0.08,0.14,0.03,0.31-0.11,0.38
				C539.28,195.36,537.69,195.7,536.36,195.7z"/>
		</g>
		<g>
			<path class="st6" d="M545.52,219.59c-0.13,0-0.25-0.09-0.28-0.23c-0.03-0.15,0.07-0.3,0.22-0.33c0.1-0.02,10-1.97,15.72-1.97
				c0.16,0,0.28,0.13,0.28,0.28c0,0.16-0.13,0.28-0.28,0.28c-5.67,0-15.51,1.94-15.61,1.96
				C545.55,219.59,545.53,219.59,545.52,219.59z"/>
		</g>
		<g>
			<path class="st6" d="M553.85,218.23c-0.09,0-0.17-0.04-0.22-0.11c-0.08-0.1-0.08-0.24,0-0.34c0.43-0.56,4.28-5.39,6.31-4.31
				c0.38,0.2,0.45,0.48,0.44,0.67c-0.07,1.35-4.93,3.46-6.42,4.07C553.92,218.22,553.89,218.23,553.85,218.23z M559.27,213.87
				c-1.14,0-3.06,1.76-4.46,3.36c2.55-1.14,4.98-2.53,5-3.12c0-0.02,0-0.07-0.14-0.15C559.55,213.9,559.41,213.87,559.27,213.87z"/>
		</g>
		<g>
			<path class="st6" d="M515.68,216.73c-0.07,0-0.15-0.03-0.2-0.09c-0.03-0.03-3.34-3.44-6.35-4.16c-0.15-0.04-0.25-0.19-0.21-0.34
				c0.04-0.15,0.19-0.24,0.34-0.21c3.18,0.76,6.49,4.17,6.63,4.32c0.11,0.11,0.1,0.29-0.01,0.4
				C515.82,216.71,515.75,216.73,515.68,216.73z"/>
		</g>
		<g>
			<path class="st6" d="M512.43,213.87c-0.07,0-0.14-0.03-0.2-0.08c-0.22-0.22-2.15-2.17-2.08-3.43c0.02-0.3,0.14-0.55,0.37-0.73
				c0.22-0.18,0.47-0.22,0.7-0.13c0.93,0.38,1.38,3.19,1.49,4.04c0.02,0.12-0.05,0.24-0.15,0.29
				C512.52,213.86,512.47,213.87,512.43,213.87z M510.97,210.02c-0.02,0-0.06,0.01-0.11,0.05c-0.1,0.08-0.15,0.18-0.15,0.32
				c-0.03,0.61,0.68,1.6,1.29,2.31c-0.25-1.31-0.64-2.53-1-2.67C511,210.03,510.99,210.02,510.97,210.02z"/>
		</g>
	</g>
	<g>
		<path d="M533.32,184.65c-0.14,0-0.23-0.01-0.24-0.01c-0.15-0.02-0.26-0.16-0.25-0.31c0.02-0.15,0.14-0.27,0.31-0.25
			c0.01,0,1.24,0.13,2.15-0.81c0.11-0.11,0.29-0.11,0.4-0.01c0.11,0.11,0.11,0.29,0.01,0.4
			C534.85,184.54,533.79,184.65,533.32,184.65z"/>
	</g>
</g>
<g>
	<rect x="737.15" y="213.17" class="st18" width="58.51" height="82.39"/>
</g>
<g>
	<rect x="724.24" y="213.17" class="st23" width="58.51" height="82.39"/>
</g>
<g>
	<g>
		<g>
			<path d="M380.06,171.75c0,0,11.75,18.88-4.11,20.93C360.08,194.74,380.06,171.75,380.06,171.75z"/>
		</g>
		<g>
			<path class="st21" d="M349.14,231.37c0,0,2.77-28.69,13.05-33.63c10.29-4.93,26.93,0.14,26.93,0.14l-0.75,38.38L349.14,231.37z"
				/>
		</g>
		<g>
			<g>
				<g>
					<g>
						<path class="st3" d="M375.82,189.07l0.94,6.04c0,0-0.96,1.96-4.91,2.98c-2.94,0.76-4.08,0.35-4.08,0.35l-0.06-3.14l-0.06-3.06
							l7-2.72L375.82,189.07z"/>
					</g>
				</g>
			</g>
		</g>
		<g>
			<g>
				<g>
					<g>
						<path d="M374.65,189.54c0.01,0.19-0.02,0.42-0.09,0.69c-0.95,3.68-5.02,5.13-6.72,5.58l-0.16-3.45L374.65,189.54z"/>
					</g>
				</g>
			</g>
		</g>
		<g>
			<g>
				<g>
					<g>
						<path class="st3" d="M363.5,177.01c0,0-2.14,9.2,0.09,13.74c2.23,4.53,6.45,2.97,8.88,1.56c2.43-1.41,3.35-3.23,3.35-3.23
							s2.59,0.37,3.8-2.19c1.21-2.57-0.28-4.98-1.78-5.32c-1.5-0.34-2.97,0.97-2.97,0.97l0.84-2.71
							C375.7,179.82,367.91,168.26,363.5,177.01z"/>
					</g>
				</g>
			</g>
		</g>
		<g>
			<path d="M365.85,187.74c-0.09,0-0.19-0.05-0.23-0.14c-0.91-1.7,0.01-3.79,0.05-3.88c0.06-0.13,0.22-0.19,0.35-0.13
				c0.13,0.06,0.19,0.22,0.13,0.35c-0.01,0.02-0.85,1.94-0.07,3.42c0.07,0.13,0.02,0.29-0.11,0.36
				C365.93,187.73,365.89,187.74,365.85,187.74z"/>
		</g>
		<g>
			<path d="M375.94,186.44c-0.05,0-0.1-0.01-0.14-0.04c-0.12-0.08-0.16-0.24-0.08-0.36l1.84-2.89c0.08-0.12,0.24-0.16,0.36-0.08
				c0.12,0.08,0.16,0.24,0.08,0.36l-1.84,2.89C376.12,186.4,376.03,186.44,375.94,186.44z"/>
		</g>
		<g>
			<path d="M376.62,185.38c-0.14,0-0.26-0.11-0.26-0.25c-0.01-0.15,0.11-0.27,0.25-0.27l1.64-0.07c0.15,0,0.27,0.11,0.27,0.25
				c0.01,0.15-0.11,0.27-0.25,0.27l-1.64,0.07C376.62,185.38,376.62,185.38,376.62,185.38z"/>
		</g>
		<g>
			<path class="st6" d="M363.85,226.45c-0.08,0-0.16-0.04-0.21-0.1c-0.02-0.03-1.99-2.66-3.56-6.55c-2.42-6-0.11-14.64-0.01-15
				c0.04-0.14,0.18-0.22,0.32-0.19c0.14,0.04,0.22,0.18,0.19,0.32c-0.02,0.09-2.36,8.83-0.01,14.66c1.54,3.82,3.47,6.4,3.49,6.42
				c0.09,0.12,0.06,0.28-0.05,0.37C363.96,226.43,363.91,226.45,363.85,226.45z"/>
		</g>
		<g>
			<path d="M368.76,189.86c-0.74,0-1.38-0.43-1.41-0.46c-0.08-0.05-0.12-0.14-0.11-0.23c0-0.09,0.05-0.17,0.13-0.22l3.11-1.75
				c0.08-0.05,0.19-0.04,0.27,0.01c0.08,0.05,0.13,0.15,0.12,0.25c0,0.05-0.13,1.31-1.12,2.07
				C369.44,189.78,369.09,189.86,368.76,189.86z M368.05,189.18c0.37,0.15,0.93,0.28,1.38-0.07c0.43-0.33,0.66-0.79,0.78-1.15
				L368.05,189.18z"/>
		</g>
		<g>
			<path d="M369.98,180.51c-0.08,0-0.16-0.03-0.21-0.1c-0.53-0.68-1.54-0.27-1.58-0.25c-0.14,0.06-0.29-0.01-0.35-0.14
				c-0.06-0.13,0.01-0.29,0.14-0.35c0.06-0.02,1.41-0.59,2.2,0.41c0.09,0.11,0.07,0.28-0.04,0.37
				C370.09,180.49,370.04,180.51,369.98,180.51z"/>
		</g>
		<g>
			<path d="M363.24,180.79c-0.06,0-0.11-0.02-0.16-0.05c-0.12-0.09-0.14-0.25-0.05-0.37c0.02-0.03,0.59-0.76,1.34-0.81
				c0.36-0.02,0.71,0.11,1.01,0.41c0.1,0.1,0.1,0.27,0,0.37c-0.1,0.1-0.27,0.1-0.37,0c-0.19-0.19-0.4-0.27-0.6-0.26
				c-0.51,0.03-0.96,0.6-0.96,0.61C363.4,180.76,363.32,180.79,363.24,180.79z"/>
		</g>
		<g>
			<path d="M364.31,184.36c-0.14,0-0.26-0.11-0.26-0.25l-0.07-1.51l-0.66-0.56c-0.11-0.09-0.13-0.26-0.03-0.37
				c0.1-0.11,0.26-0.12,0.37-0.03l0.75,0.63c0.06,0.05,0.09,0.12,0.09,0.19l0.07,1.62c0.01,0.15-0.11,0.27-0.25,0.28
				C364.32,184.36,364.32,184.36,364.31,184.36z"/>
		</g>
		<g>
			<path d="M369.09,183.83c-0.14,0-0.25-0.11-0.26-0.25l-0.09-1.49l-0.94-0.63c-0.12-0.08-0.15-0.24-0.07-0.37
				c0.08-0.12,0.25-0.16,0.37-0.07l1.05,0.7c0.07,0.05,0.11,0.12,0.12,0.2l0.1,1.62c0.01,0.15-0.1,0.27-0.25,0.28
				C369.1,183.83,369.09,183.83,369.09,183.83z"/>
		</g>
		<g>
			<path d="M374.54,182.46c0,0-4.29-0.57-6.12-3.43c-1.83-2.86-1.73-4.23-1.73-4.23s-2.12,1.23-2.87,2.83
				c-0.75,1.6-0.88,2.45-0.88,2.45s-0.71-3.44-0.35-4.49c0.36-1.05,2.36-6.96,10.6-6.24C385.68,170.45,380.6,180.58,374.54,182.46z"
				/>
		</g>
		<g>
			<path class="st3" d="M376.04,221.33c0,0-0.38-0.17-1.99-0.74c-1.53-0.55-7.03-0.13-7.03-0.13s-4.79,0.71-8.78,2.28
				c-3.99,1.57-3.45,3.37-3.45,3.37s-2.57,1.35-1.62,2.48c0.95,1.13,5.04,0.44,5.04,0.44s-5.21,1.47-3.22,2.78
				c1.99,1.31,8.62-0.82,8.62-0.82s9.84,4.55,13.44,1.36C380.66,229.17,376.04,221.33,376.04,221.33z"/>
		</g>
		<g>
			<path class="st21" d="M374.01,219.93L370,235.99c0,0,26.14,20.55,37.06,4.44c10.92-16.12-9.39-40.27-17.94-42.54
				c-8.54-2.27-4.23,23.69-4.23,23.69L374.01,219.93z"/>
		</g>
		<g>
			<path class="st6" d="M393.57,222.43c-0.03,0-0.06,0-0.1-0.02c-5.55-2.15-16.73-1.79-16.84-1.79c-0.15,0.01-0.27-0.11-0.27-0.25
				c0-0.15,0.11-0.27,0.25-0.27c0.46-0.01,11.4-0.36,17.05,1.83c0.14,0.05,0.2,0.21,0.15,0.34
				C393.77,222.37,393.67,222.43,393.57,222.43z"/>
		</g>
		<g>
			<path class="st6" d="M385.09,220.85c-0.11,0-0.21-0.07-0.25-0.17c-0.04-0.12,0-0.25,0.1-0.31c0.61-0.4,6.04-3.88,7.99-2.49
				c0.35,0.25,0.38,0.51,0.33,0.69c-0.31,1.22-6.31,2.06-8.14,2.28C385.11,220.85,385.1,220.85,385.09,220.85z M391.73,218.07
				c-1.47,0-3.85,1.17-5.43,2.08c3.52-0.51,6.41-1.27,6.45-1.72c0,0-0.01-0.05-0.13-0.13C392.4,218.14,392.09,218.07,391.73,218.07z
				"/>
		</g>
		<g>
			<path class="st6" d="M367.97,198.7c-0.12,0-0.19,0-0.22,0c-0.15,0-0.26-0.13-0.26-0.27c0-0.15,0.12-0.27,0.27-0.26
				c0.06,0.01,6.25,0.14,8.78-3.22c0.09-0.12,0.26-0.14,0.37-0.05c0.12,0.09,0.14,0.25,0.05,0.37
				C374.53,198.52,369.14,198.7,367.97,198.7z"/>
		</g>
		<g>
			<path class="st6" d="M354.96,231.52H321.6l-9.53-21.55h32.04c0.8,0,1.52,0.47,1.85,1.2L354.96,231.52z"/>
		</g>
		<g>
			<path class="st7" d="M352.06,231.52H318.7l-8.5-19.23c-0.48-1.09,0.32-2.32,1.51-2.32h30.83L352.06,231.52z"/>
		</g>
		<g>
			<path d="M366.14,234.24h-47.1c-0.75,0-1.36-0.61-1.36-1.36c0-0.75,0.61-1.36,1.36-1.36h47.1c0.75,0,1.36,0.61,1.36,1.36
				C367.5,233.64,366.89,234.24,366.14,234.24z"/>
		</g>
		<g>
			<path d="M354.79,226.38c-0.09,0-0.18-0.05-0.23-0.13c-0.07-0.13-0.03-0.29,0.1-0.36c0.03-0.02,3.48-2,7.85-3.24
				c0.14-0.04,0.29,0.04,0.33,0.18c0.04,0.14-0.04,0.29-0.18,0.33c-4.3,1.22-7.69,3.17-7.73,3.19
				C354.88,226.37,354.83,226.38,354.79,226.38z"/>
		</g>
		<g>
			<path d="M357.72,229.17c-0.08,0-0.17-0.04-0.22-0.12c-0.08-0.12-0.05-0.29,0.07-0.37c0.12-0.08,2.97-1.96,5.65-2.19
				c0.16-0.02,0.27,0.1,0.29,0.24c0.01,0.15-0.09,0.27-0.24,0.29c-2.54,0.22-5.37,2.09-5.4,2.11
				C357.82,229.16,357.77,229.17,357.72,229.17z"/>
		</g>
		<g>
			<path d="M376.76,173.73c0,0,4.45-12.01,9.61-7.24c5.16,4.77-4.81,12.52-4.81,12.52L376.76,173.73z"/>
		</g>
	</g>
	<g>
		<path class="st6" d="M333.82,220.75c0,1.53-1.24,2.77-2.77,2.77c-1.53,0-2.77-1.24-2.77-2.77c0-1.53,1.24-2.77,2.77-2.77
			C332.58,217.98,333.82,219.22,333.82,220.75z"/>
	</g>
</g>
<g>
	<g>
		<path class="st19" d="M424.91,195.87c0,0-1.39-7.7-6.04-6.45c-2.18,0.59,1.45,4.68,1.45,4.68l-6.11-2.34c0,0-6.95-1.94-8.34-1.33
			c-1.38,0.61,0.89,2.86,0.89,2.86s-4.95-1.49-4.26,0.93c0.69,2.41,4.08,3.8,4.08,3.8s-4.84-1.72-3.75,1.11
			c0.59,1.53,11.24,7.97,18.41,7.74c7.17-0.23,4.87-5.89,4.87-5.89L424.91,195.87z"/>
	</g>
	<g>
		<path d="M409.27,199.55c-0.08,0-0.15-0.03-0.2-0.09c-0.1-0.11-0.08-0.28,0.03-0.38l6.16-5.26c0.11-0.09,0.28-0.08,0.38,0.03
			s0.08,0.28-0.03,0.38l-6.16,5.26C409.39,199.53,409.33,199.55,409.27,199.55z"/>
	</g>
	<g>
		<path d="M422.21,202.55c-0.11-0.01-2.18-0.19-3.14-1.89c-0.8-1.41-0.57-3.4,0.67-5.92c0.07-0.13,0.23-0.18,0.36-0.12
			c0.13,0.06,0.19,0.22,0.12,0.36c-1.16,2.35-1.39,4.17-0.69,5.41c0.82,1.45,2.68,1.62,2.7,1.62c0.15,0.01,0.25,0.14,0.24,0.29
			C422.46,202.44,422.35,202.55,422.21,202.55z"/>
	</g>
	<g>
		<path class="st12" d="M426.67,199.21l-9.29,8.12c0,0,4,20.09,13.36,25.64c9.35,5.55,17.3,0.4,17.3,0.4l-6.67-22.42L426.67,199.21z
			"/>
	</g>
	<g>
		<path d="M454.41,169.29c0,0-0.73-7.48,1.45-7.96c2.18-0.47,5.79,2.29,5.79,2.29s6.45,1,8.09,4.12c1.65,3.12,0,6.9,0,6.9
			s-2.41-0.27-3.88,0.06C464.38,175.04,454.41,169.29,454.41,169.29z"/>
	</g>
	<g>
		<path class="st24" d="M432.14,229.37h-22.39c-0.68,0-1.23-0.55-1.23-1.23v-4.81c0-0.68,0.55-1.23,1.23-1.23h22.39
			c0.68,0,1.23,0.55,1.23,1.23v4.81C433.37,228.82,432.82,229.37,432.14,229.37z"/>
	</g>
	<g>
		<path class="st9" d="M430.75,229.37h-22.39c-0.68,0-1.23-0.55-1.23-1.23v-4.81c0-0.68,0.55-1.23,1.23-1.23h22.39
			c0.68,0,1.23,0.55,1.23,1.23v4.81C431.98,228.82,431.43,229.37,430.75,229.37z"/>
	</g>
	<g>
		<path class="st21" d="M434.49,235.01h-20.15c-0.64,0-1.17-0.52-1.17-1.17v-3.26c0-0.64,0.52-1.17,1.17-1.17h20.15
			c0.64,0,1.17,0.52,1.17,1.17v3.26C435.65,234.49,435.13,235.01,434.49,235.01z"/>
	</g>
	<g>
		<path class="st6" d="M433.1,235.01h-20.15c-0.64,0-1.17-0.52-1.17-1.17v-3.26c0-0.64,0.52-1.17,1.17-1.17h20.15
			c0.64,0,1.17,0.52,1.17,1.17v3.26C434.27,234.49,433.74,235.01,433.1,235.01z"/>
	</g>
	<g>
		<polygon class="st2" points="440.82,239.84 442.13,208.33 480.52,211.94 480.21,243 		"/>
	</g>
	<g>
		<path class="st2" d="M434.82,205.44c0,0,7.91-16.71,23.27-17.84s22.72,3.29,28.26,17.47c3.15,8.05,2.83,16.11,2.83,16.11H466.3
			l-23.13-2.24L434.82,205.44z"/>
	</g>
	<g>
		<g>
			<path class="st19" d="M465.79,181.52l0.24,7.72c0,0-1.16,1.13-5.36,1.53c-3.12,0.3-4.34-1.35-4.34-1.35l0.24-2.29l0.38-3.55
				l7.56-1.77L465.79,181.52z"/>
		</g>
	</g>
	<g>
		<g>
			<path d="M464.52,181.82c-0.02,0.2-0.09,0.43-0.2,0.7c-1.56,3.61-5.94,4.44-7.74,4.63l0.38-3.55L464.52,181.82z"/>
		</g>
	</g>
	<g>
		<g>
			<path class="st19" d="M455.13,167.25c0,0-3.65,9.05-2.09,14.03c1.55,4.98,6.1,4.06,8.81,3.01c2.71-1.05,3.93-2.77,3.93-2.77
				s2.58,0.79,4.22-1.63c1.64-2.43,0.51-5.13-0.97-5.71c-1.48-0.58-3.18,0.52-3.18,0.52l1.29-2.64
				C467.14,172.06,461.03,159.03,455.13,167.25z"/>
		</g>
	</g>
	<g>
		<path d="M466.17,178.55c-0.08,0-0.16-0.04-0.21-0.11c-0.09-0.12-0.06-0.28,0.05-0.36l3.2-2.37c0.12-0.08,0.28-0.06,0.36,0.05
			c0.09,0.12,0.06,0.28-0.05,0.36l-3.2,2.37C466.28,178.53,466.22,178.55,466.17,178.55z"/>
	</g>
	<g>
		<path d="M469.12,178.47c-0.02,0-0.04,0-0.06-0.01l-2.14-0.52c-0.14-0.03-0.23-0.17-0.19-0.31c0.03-0.14,0.18-0.23,0.31-0.19
			l2.14,0.52c0.14,0.03,0.23,0.17,0.19,0.31C469.34,178.39,469.24,178.47,469.12,178.47z"/>
	</g>
	<g>
		<path d="M461.01,171.31c-0.11,0-0.21-0.07-0.25-0.17c-0.51-1.44-1.79-1.23-1.84-1.22c-0.14,0.03-0.28-0.07-0.3-0.21
			c-0.03-0.14,0.07-0.28,0.21-0.3c0.61-0.11,1.9,0.07,2.43,1.55c0.05,0.14-0.02,0.28-0.16,0.33
			C461.07,171.31,461.04,171.31,461.01,171.31z"/>
	</g>
	<g>
		<path d="M454.23,170.69c-0.07,0-0.15-0.03-0.2-0.09c-0.09-0.11-0.08-0.27,0.03-0.37c0.28-0.23,1.12-0.94,1.45-0.56
			c0.09,0.11,0.08,0.27-0.02,0.37c-0.08,0.07-0.18,0.08-0.27,0.05c-0.06,0.01-0.29,0.09-0.82,0.54
			C454.35,170.67,454.29,170.69,454.23,170.69z"/>
	</g>
	<g>
		<path d="M455.97,177.5c-0.08,0-0.16-0.04-0.21-0.1c-1.12-1.46,0.63-3.83,0.71-3.93c0.09-0.12,0.25-0.14,0.36-0.05
			c0.11,0.09,0.14,0.25,0.05,0.36c-0.02,0.02-1.59,2.15-0.71,3.31c0.09,0.11,0.07,0.28-0.05,0.36
			C456.08,177.48,456.02,177.5,455.97,177.5z"/>
	</g>
	<g>
		<path d="M454.31,174.14c-0.02,0-0.04,0-0.07-0.01c-0.14-0.04-0.22-0.18-0.19-0.32l0.43-1.65c0.04-0.14,0.17-0.23,0.32-0.19
			c0.14,0.04,0.22,0.18,0.19,0.32l-0.43,1.65C454.53,174.06,454.42,174.14,454.31,174.14z"/>
	</g>
	<g>
		<path d="M458.66,174.71c-0.02,0-0.04,0-0.07-0.01c-0.14-0.04-0.22-0.18-0.19-0.32l0.43-1.65c0.04-0.14,0.17-0.23,0.32-0.19
			c0.14,0.04,0.22,0.18,0.19,0.32l-0.43,1.65C458.88,174.63,458.78,174.71,458.66,174.71z"/>
	</g>
	<g>
		<path d="M454.41,169.29c0,0,0.76-1.45,2.55-1.49c1.79-0.04,2.85,1.21,2.85,1.21s-0.74,3.03,1.71,4.6c2.46,1.57,4.33,1.1,4.33,1.1
			l1.76-0.65l1.26-2.6l-4.36-6.12l-8.55-2.72L454.41,169.29z"/>
	</g>
	<g>
		<path class="st6" d="M453.28,176.44c-0.07,0-0.14,0-0.22-0.01c-0.7-0.06-1.32-0.43-1.76-1.04c-0.43-0.59-0.63-1.35-0.55-2.12
			c0.15-1.61,1.43-2.81,2.85-2.69c0.7,0.06,1.32,0.43,1.76,1.04c0.43,0.6,0.63,1.35,0.55,2.12c-0.07,0.77-0.4,1.48-0.93,1.99
			C454.5,176.19,453.9,176.44,453.28,176.44z M451.28,173.32c-0.06,0.65,0.1,1.27,0.46,1.77c0.35,0.48,0.83,0.77,1.38,0.82
			c0.54,0.05,1.08-0.15,1.5-0.56c0.44-0.42,0.71-1,0.77-1.65c0.06-0.65-0.1-1.27-0.46-1.77c-0.35-0.48-0.83-0.77-1.38-0.82
			C452.43,170.99,451.4,171.99,451.28,173.32L451.28,173.32z"/>
	</g>
	<g>
		<path class="st6" d="M459.91,177.5c-0.09,0-0.18,0-0.27-0.01c-1.61-0.15-2.8-1.58-2.65-3.2c0.15-1.61,1.59-2.79,3.2-2.65
			c1.61,0.15,2.8,1.58,2.65,3.2C462.69,176.35,461.4,177.5,459.91,177.5z M457.51,174.34c-0.12,1.32,0.85,2.5,2.18,2.62
			c1.32,0.13,2.5-0.85,2.62-2.18c0.12-1.32-0.85-2.5-2.18-2.62C458.78,172.03,457.63,173.02,457.51,174.34L457.51,174.34z"/>
	</g>
	<g>
		<path class="st6" d="M457.38,173.95c-0.04,0-0.07-0.01-0.11-0.02c-0.22-0.1-0.94-0.34-1.29-0.15c-0.12,0.07-0.29,0.02-0.36-0.1
			c-0.07-0.13-0.02-0.29,0.1-0.36c0.65-0.36,1.65,0.08,1.77,0.13c0.13,0.06,0.19,0.22,0.13,0.35
			C457.58,173.89,457.48,173.95,457.38,173.95z"/>
	</g>
	<g>
		<path class="st6" d="M462.56,175.07c-0.09,0-0.17-0.04-0.22-0.12c-0.08-0.12-0.04-0.29,0.08-0.37c1.82-1.16,5.49-0.85,5.65-0.84
			c0.15,0.01,0.25,0.14,0.24,0.29c-0.01,0.15-0.14,0.26-0.29,0.24c-0.04,0-3.65-0.3-5.32,0.75
			C462.66,175.06,462.61,175.07,462.56,175.07z"/>
	</g>
	<g>
		<path d="M457.95,181.26c-0.78,0-1.45-0.84-1.48-0.88c-0.05-0.06-0.07-0.14-0.05-0.22c0.02-0.08,0.07-0.14,0.14-0.18l2.31-1.1
			c0.08-0.04,0.17-0.03,0.24,0.01c0.07,0.04,0.12,0.12,0.13,0.21c0,0.06,0.11,1.57-0.81,2.04
			C458.28,181.22,458.11,181.26,457.95,181.26z M457.11,180.29c0.26,0.25,0.71,0.58,1.09,0.38c0.39-0.2,0.5-0.76,0.53-1.15
			L457.11,180.29z"/>
	</g>
	<g>
		<path class="st10" d="M460.52,191.04c-2.54,0-4.41-0.8-4.44-0.82c-0.13-0.06-0.19-0.21-0.14-0.35c0.06-0.13,0.22-0.19,0.35-0.14
			c0.05,0.02,4.99,2.13,9.59-0.71c0.13-0.08,0.29-0.04,0.36,0.09c0.08,0.12,0.04,0.29-0.08,0.36
			C464.22,190.67,462.22,191.04,460.52,191.04z"/>
	</g>
	<g>
		<g>
			<path class="st19" d="M447.34,221.63c0,0-12.6-4.73-14.5-4.37c-1.9,0.37-9.59,5.71-9.27,7.18c0.32,1.47,2.01,1.21,2.01,1.21
				s-1.64,0.9-1.13,1.94c0.51,1.03,2.42,0.8,2.42,0.8s-1.37,0.68,0.26,1.48c1.64,0.8,6.32-0.51,6.32-0.51s2.56,2.51,7.14,2.64
				c4.58,0.13,6.15-0.85,6.15-0.85L447.34,221.63z"/>
		</g>
	</g>
	<g>
		<path d="M426.1,225.44c-0.09,0-0.18-0.04-0.24-0.11c-0.11-0.13-0.09-0.33,0.04-0.44l5.48-4.6c0.13-0.11,0.33-0.09,0.44,0.04
			s0.09,0.33-0.04,0.44l-5.48,4.6C426.24,225.42,426.17,225.44,426.1,225.44z"/>
	</g>
	<g>
		<path d="M427.64,228.28c-0.09,0-0.19-0.04-0.25-0.12c-0.11-0.14-0.08-0.33,0.05-0.44l5.71-4.45c0.14-0.11,0.33-0.08,0.44,0.05
			c0.11,0.14,0.08,0.33-0.05,0.44l-5.71,4.45C427.77,228.26,427.7,228.28,427.64,228.28z"/>
	</g>
	<g>
		<path class="st10" d="M467.63,220.82c-0.15,0-0.26-0.12-0.26-0.26v-3.18c0-0.15,0.12-0.26,0.26-0.26c0.15,0,0.26,0.12,0.26,0.26
			v3.18C467.9,220.71,467.78,220.82,467.63,220.82z"/>
	</g>
	<g>
		<path class="st10" d="M441.76,217.65c-0.15,0-0.26-0.12-0.26-0.26v-5.12c0-0.15,0.12-0.26,0.26-0.26c0.15,0,0.26,0.12,0.26,0.26
			v5.12C442.02,217.53,441.9,217.65,441.76,217.65z"/>
	</g>
	<g>
		<path class="st12" d="M467.63,220.56l-21.66,0.14l-2.8,11.78c0,0,19.19,11.12,31.02,6.35c11.83-4.77,13.25-17.87,13.25-17.87
			L467.63,220.56z"/>
	</g>
</g>
<g>
	<g>
		<path class="st30" d="M675.2,344.98h-362V245.9c0-6.42,5.2-11.62,11.62-11.62H675.2V344.98z"/>
	</g>
	<g>
		<path class="st31" d="M661.34,344.98h-362V245.9c0-6.42,5.2-11.62,11.62-11.62h350.38V344.98z"/>
	</g>
	<g>
		<path class="st6" d="M660.82,261.37c0,0-361.47-1.16-361.47-1.16c-0.22,0-0.4-0.18-0.4-0.4c0-0.22,0.18-0.4,0.4-0.4
			c0,0,361.47,1.16,361.47,1.16c0.22,0,0.4,0.18,0.4,0.4C661.22,261.19,661.04,261.37,660.82,261.37z"/>
	</g>
</g>
<g>
	<rect x="688.79" y="260.96" class="st30" width="58.51" height="84.01"/>
</g>
<g>
	<rect x="675.2" y="260.96" class="st31" width="58.51" height="84.01"/>
</g>
<g>
	<path class="st6" d="M819.07,295.96h-22.42c-0.22,0-0.4-0.18-0.4-0.4c0-0.22,0.18-0.4,0.4-0.4h22.42c0.22,0,0.4,0.18,0.4,0.4
		C819.47,295.77,819.29,295.96,819.07,295.96z"/>
</g>
<g>
	<path class="st6" d="M819.07,345.38h-70.83c-0.22,0-0.4-0.18-0.4-0.4c0-0.22,0.18-0.4,0.4-0.4h70.83c0.22,0,0.4,0.18,0.4,0.4
		C819.47,345.2,819.29,345.38,819.07,345.38z"/>
</g>
</svg>
